<svg width="55" height="35" viewBox="0 0 55 35" fill="none" xmlns="http://www.w3.org/2000/svg">
<path fill-rule="evenodd" clip-rule="evenodd" d="M36.3963 32.6056C36.3239 31.9358 37.3629 31.8668 37.6781 32.067C37.4656 32.2305 37.3092 32.1844 36.9636 32.3294C36.6485 32.4629 36.6998 32.5458 36.394 32.6056H36.3963ZM43.5429 31.9934C43.2534 31.9151 43.4775 31.9796 43.3631 31.9105C43.4145 31.6366 44.0822 31.7793 44.311 31.8622C44.3997 31.8944 44.6425 31.9819 44.7056 32.0325C45.0161 32.2857 44.7733 32.41 44.7733 32.41C44.7569 32.4123 44.7312 32.4192 44.7219 32.4169C44.7126 32.4169 44.6822 32.4215 44.6729 32.4192C44.6262 32.41 44.6238 32.41 44.5748 32.3893C44.416 32.3225 44.3297 32.1499 43.7483 32.0302C43.6829 32.0164 43.5966 32.0072 43.5405 31.9934H43.5429ZM44.0728 31.7172C44.0098 31.7057 43.9164 31.7011 43.8627 31.6873C43.704 31.6458 43.7507 31.6458 43.6806 31.5952C43.9444 31.3766 44.3507 31.4019 44.6589 31.5124C44.7522 31.5446 45.0067 31.6758 45.0394 31.7057C45.3593 31.9888 45.1025 32.0947 45.1025 32.0947L44.9577 32.0924C44.7943 32.0394 44.6705 31.8185 44.0752 31.7172H44.0728ZM46.3632 31.0244C46.2651 30.6792 46.3655 31.273 46.3399 30.8863C46.3212 30.5756 46.4006 30.4697 46.5103 30.3616C46.5663 30.4628 46.62 30.6631 46.613 30.8104C46.599 31.0566 46.5943 30.9968 46.4309 31.1303L46.3632 31.0244ZM45.2635 30.785C45.2706 30.7689 45.2962 30.8104 45.2846 30.8127L45.1071 31.3305C44.8246 31.319 44.3927 31.273 44.1639 31.2224C43.8254 31.1464 44.0168 31.3213 43.8604 31.029C43.4915 30.3385 44.8363 30.4997 45.2145 30.7459C45.2262 30.7528 45.2565 30.7966 45.2635 30.7827V30.785ZM46.1297 30.7482C46.0457 31.1349 45.8356 31.1326 45.4176 31.1165L45.518 30.6654C44.6962 30.0969 43.9188 30.7045 43.837 29.8322C45.1748 30.1866 45.1491 29.9979 46.4496 29.8276C46.3702 30.5687 46.3562 29.6941 46.1297 30.7459V30.7482ZM44.1032 28.1773C45.8145 28.3085 46.2325 27.9403 48.5041 28.2372L48.6162 29.6619C47.9391 29.8828 47.2014 29.8575 46.5173 29.6412L46.4799 28.7689C46.4426 28.6054 46.4589 28.663 46.4006 28.5732L46.2815 29.6273C45.8169 29.9542 44.7009 30.0002 44.1616 29.7033L44.1009 28.1727L44.1032 28.1773ZM45.3079 26.8746C45.4223 26.7757 45.5344 26.6744 45.6675 26.6054C45.8636 26.5064 45.9173 26.5225 46.0597 26.4327C46.062 26.4304 46.3282 26.2118 46.3679 26.1819C46.8932 25.7952 48.8053 25.7837 48.8193 25.7883C49.2139 25.9356 49.1882 27.3142 49.1672 27.7354C48.2216 28.0991 47.143 27.8091 46.4402 27.816C45.999 27.8206 44.7733 28.2165 43.9001 27.8091L45.3079 26.8746ZM32.2312 28.03C32.1845 27.7907 32.3316 26.4074 32.4086 26.2118C32.53 25.9034 32.8405 25.9908 33.2538 25.9954C34.8904 26.0231 35.1589 25.6525 36.4897 26.4581C36.6555 26.557 36.9426 26.6767 37.1574 26.7504C37.0173 27.068 37.3302 27.3695 37.2835 27.8965C36.4197 28.4167 35.285 28.0047 34.769 27.984C34.3394 27.9656 33.4126 28.3131 32.2335 28.03H32.2312ZM8.98447 30.6585C8.72065 30.525 8.74633 30.6124 8.67629 30.2511C8.31674 28.4282 8.53621 28.3845 7.45057 26.5685C7.17274 26.1036 7.41088 25.9471 7.63501 25.6341L8.87007 24.0069C9.09654 23.6915 9.22495 23.5373 9.46309 23.2657C9.52612 23.3601 11.2141 26.9736 11.2048 27.19C11.1908 27.5145 10.2032 28.3661 9.97672 28.7896C9.73625 29.2384 9.24596 30.38 8.98447 30.6585ZM12.9115 30.327C12.6827 30.0416 12.5216 29.6135 12.3651 29.312C11.3892 27.4132 11.3285 27.9748 12.3278 26.3729C13.1683 25.0242 12.7714 25.2382 13.6936 24.6398L15.4796 23.4361C15.8018 24.0023 16.9528 25.3211 17.1653 26.1681C16.9972 26.3982 16.2804 26.8792 15.9559 27.091C14.8306 27.8298 14.6251 28.0277 13.7963 29.1532C13.5418 29.4985 13.1052 30.0094 12.9091 30.327H12.9115ZM32.0911 25.6663C31.958 25.3464 32.1331 24.8216 32.1401 24.3107C32.7285 24.2485 32.418 24.4188 32.7542 24.6881C32.8569 24.771 33.2515 24.9321 33.3985 25.0034C33.8025 25.1968 34.3278 25.4016 34.699 25.6088C34.3394 25.7998 32.5767 25.7446 32.0911 25.6663ZM28.9673 26.8263C28.3276 25.641 28.0847 25.5765 28.3579 24.5201C28.4373 24.2163 28.533 24.2094 28.8599 24.0736C30.3517 23.4476 29.5463 24.2784 30.7486 24.3751C30.8514 25.0011 31.1292 25.3073 31.7876 25.153C31.7759 25.809 31.7129 25.9218 31.3557 26.1174C31.2436 26.1773 31.1432 26.2233 31.0241 26.2716L29.1564 27.114L28.9673 26.8286V26.8263ZM47.3601 25.6525C47.6099 25.4569 48.9664 24.5777 49.1975 24.5592L49.3119 25.3027C49.0014 25.4684 47.729 25.6939 47.3601 25.6525ZM26.5555 26.7619C26.1096 26.801 26.0512 26.6031 25.7827 26.3246C24.6854 25.1853 24.1461 25.1001 24.7344 24.0506C25.171 24.1012 25.1547 24.2439 25.4629 24.5155C25.9508 24.9436 26.4364 25.0725 26.4598 25.7745C26.4715 26.1335 26.5882 26.5386 26.5555 26.7642V26.7619ZM31.2459 24.9528C30.9564 24.5961 30.7697 23.9056 31.0848 23.4729C31.379 23.6547 31.1012 23.443 31.316 23.7422C31.6569 24.2163 31.7386 23.9792 32.0608 24.2807C31.9977 24.7296 31.7572 24.9988 31.2459 24.9528ZM31.4864 23.7307C31.4467 23.3302 31.5378 22.7387 31.8086 22.4234C32.509 22.6213 32.0257 23.1369 32.1168 24.0437C31.825 23.9516 31.6872 23.8503 31.4864 23.7284V23.7307ZM31.1642 23.1507C30.6272 22.9113 30.8467 22.2968 30.9564 21.7145C31.8156 21.6523 31.5238 22.833 31.1642 23.1507ZM50.4723 22.9803C50.624 22.3543 50.1244 21.5994 50.7735 21.3922C50.8598 21.5073 51.077 22.1518 51.0887 22.3267C51.119 22.7571 50.8295 22.8607 50.4746 22.9803H50.4723ZM24.5266 22.4717C24.6527 22.3336 24.8582 22.2231 25.0123 22.1149C25.5446 21.7398 25.5633 21.9792 25.5633 21.9792C25.5796 22.1265 25.2434 22.6213 25.1337 22.7824L25.0566 22.8722C24.7578 22.8008 24.7391 22.7065 24.5266 22.4694V22.4717ZM30.6272 22.184C29.7377 21.6316 31.6172 20.009 31.4421 21.2127C31.3767 21.6569 31.1385 21.4682 30.723 21.5672L30.6272 22.184ZM51.2568 22.1518C51.056 21.7651 50.7058 20.8007 51.4178 20.6258C51.4645 20.6949 51.5112 20.5798 51.5673 21.0585C51.6326 21.5971 51.7167 22.0574 51.2568 22.1518ZM26.9151 21.3807C27.5267 21.2173 29.2101 20.5614 29.7611 20.6189C29.8031 20.9227 29.2474 21.291 28.7128 21.8825L27.8233 22.7433C27.8116 22.7548 27.7999 22.7755 27.7882 22.787C27.6108 22.9895 27.8046 22.932 27.4684 23.0218C27.2746 22.7502 26.9267 21.7605 26.9151 21.383V21.3807ZM36.987 20.6972C36.9473 20.3841 36.9473 20.4716 37.0337 20.1816C37.2111 20.3358 37.3652 20.5361 37.4423 20.8099L36.987 20.6972ZM51.2404 20.3473C51.3175 19.8778 51.3198 19.7259 51.7634 19.7121C51.8404 20.0274 51.9502 20.6718 51.8194 20.978C51.6747 20.7938 51.719 20.7639 51.656 20.513L51.2404 20.3473ZM29.9945 20.1287C30.2163 20.0251 30.758 20.7961 30.4918 21.1091C30.3097 21.0861 30.4288 21.2035 30.235 20.9549C30.0646 20.734 29.705 20.2645 29.9922 20.131L29.9945 20.1287ZM43.6876 19.8801C44.0238 19.9468 44.0939 20.0205 44.2293 20.3105C43.8837 20.2391 43.788 20.2299 43.6876 19.8801ZM35.1052 19.5648C35.6095 19.6338 36.4103 19.8801 36.8609 20.0527L36.8142 20.5982L34.9465 20.032L35.1076 19.5648H35.1052ZM20.6277 19.7167C21.2464 19.5372 21.8604 19.2195 22.4558 18.9756C23.0558 18.7293 23.6932 18.4577 24.2465 18.2114C25.185 17.7926 25.2271 18.246 25.8388 18.7178C25.9905 18.8352 26.4318 19.1781 26.5111 19.3231C26.6839 19.6407 26.6162 20.0504 26.7516 20.3404L22.7313 22.1725C22.262 21.6799 20.7841 20.0297 20.63 19.7167H20.6277ZM34.2297 19.0101C34.4818 18.9203 34.6009 18.9226 34.8904 18.9779L34.7597 19.7719C34.127 19.8502 34.0803 19.5763 34.2297 19.0101ZM13.4228 19.643C13.9737 19.3507 17.226 16.964 17.5855 16.8857C17.798 17.155 17.9101 17.3161 18.1692 17.5716L19.9903 19.5464C19.4066 19.9952 18.1132 20.6327 17.6066 21.001L15.7388 22.8584L13.6679 20.0136C13.5628 19.8686 13.5161 19.7765 13.4251 19.643H13.4228ZM42.4455 25.7929C42.5366 25.3832 42.5786 24.3659 42.5786 23.8895C42.5786 22.9458 42.6954 23.1438 43.4728 22.7962L50.4069 19.5832C50.6614 19.4566 50.8855 19.3415 51.0887 19.2357C51.3898 19.0791 51.5066 19.017 51.8147 19.1597C51.7961 19.7259 51.5836 19.2932 51.2311 19.8479C50.9929 20.2207 51.1937 20.3519 50.9626 20.7639C50.5914 21.4222 50.568 21.1759 50.3789 21.4544C50.1454 21.7996 50.3602 22.1495 50.2435 22.5062C50.2085 22.6098 49.3353 23.8734 49.2396 23.9608L44.8176 26.946C41.9319 28.9046 42.3522 29.0059 39.812 27.7861L33.1277 24.5707C32.4693 24.1058 32.495 23.0701 32.4413 22.7985C32.3526 22.352 32.0701 22.3819 31.8226 22.1495C31.5261 21.871 31.6755 21.5395 31.6569 21.1299C31.6172 20.2069 30.5852 20.7938 30.6319 19.8134C31.0848 19.7719 32.7752 20.4463 33.2911 20.6258L40.97 23.3187C40.9887 23.7007 40.949 24.1127 41.0354 24.4764C41.0868 24.6973 41.1591 25.3556 41.2082 25.4546L41.1404 23.4015L42.4199 23.2634L42.4455 25.7883V25.7929ZM31.295 19.3254C31.3954 19.2748 31.4631 19.2495 31.6569 19.3047L32.6117 19.6384C33.046 19.7696 33.4733 19.887 33.9052 20.0251C35.4461 20.5153 40.6735 21.818 41.1521 22.8722C40.865 22.7962 40.9467 22.7985 40.7319 22.6282L40.7085 22.6949C40.6058 22.8492 40.8113 22.7341 40.5895 22.7755C40.2953 22.5407 40.3933 22.6213 40.0922 22.5891L31.1619 19.5625L32.2639 19.6868C31.9884 19.6799 31.4771 19.4704 31.295 19.3254ZM43.69 20.3036C44.4674 20.5683 44.9203 20.6903 45.1398 19.864C45.3172 19.1942 45.9476 19.1781 46.4379 18.9526C47.3344 19.5671 47.0916 19.3576 47.722 18.9549L48.2753 19.1367L43.8394 21.0424L43.69 20.3013V20.3036ZM9.71057 22.543C9.40005 21.9607 9.13389 21.2472 8.82338 20.6649C8.69263 20.4233 8.0179 19.0009 8.05759 18.8053C8.08561 18.6626 9.0942 17.4381 9.26464 17.3115C9.56114 17.0906 9.7666 16.9341 10.0398 16.7292C10.6981 16.2367 10.5581 16.2321 10.7565 16.094C10.9503 16.1354 10.8756 16.1055 11.0087 16.2367L12.7293 18.7293C13.0772 19.1919 13.1169 19.2449 13.0259 19.4957C12.8764 19.9123 11.499 20.7547 11.1744 20.9895C10.5301 21.4567 10.1191 22.2277 9.71057 22.5407V22.543ZM47.3998 17.7626C47.4348 18.1493 47.5772 19.0354 47.0823 19.0308C46.5313 19.0239 46.7461 18.0941 46.7274 17.7212L47.3998 17.7626ZM32.6701 18.6441C32.6701 18.6211 32.6795 18.6119 32.6865 18.5958C32.9409 18.506 33.0483 18.6326 33.2982 18.7408C33.4593 18.8099 33.6951 18.8582 33.9028 18.9318L33.8982 19.3254C33.6834 19.4888 33.5129 19.5579 33.1791 19.5579L32.7028 18.8375C32.6328 18.7017 32.6841 18.8513 32.6608 18.6925C32.6584 18.6833 32.6701 18.6672 32.6701 18.6441ZM42.135 22.7364C42.5436 21.8295 45.2028 20.6903 46.4379 20.1862L51.1797 18.2068C51.3571 18.4623 51.189 18.3012 51.4249 18.4577C50.8622 18.8858 47.8271 20.131 46.8838 20.6373L43.4635 22.2484C42.8938 22.4947 43.1436 22.1863 42.5063 22.6788C42.5833 22.4878 42.6463 22.4717 42.7584 22.3014L42.1327 22.7387L42.135 22.7364ZM49.3703 18.651C49.487 18.3541 49.6575 18.0595 49.8909 17.8915L49.8956 18.3979L49.3703 18.651ZM45.3663 17.8271C45.4713 17.7327 45.539 17.6913 45.6745 17.5509L45.957 17.2448C46.7134 17.7695 46.522 17.468 46.5103 18.6073C46.1858 18.7224 45.957 18.8881 45.6348 18.941C45.3383 18.4508 45.7048 18.4922 45.3663 17.8271ZM5.39135 21.0286C5.09251 20.6212 4.49716 19.1781 4.224 18.6326C3.42786 17.0422 3.46288 17.1412 3.92282 16.2505C4.09092 15.9237 4.13528 15.7741 4.44813 15.5853C4.72129 15.4196 4.86838 15.2769 5.1392 15.1549C5.3073 15.4035 5.44738 15.6475 5.62482 15.926C5.79292 16.186 5.96102 16.4047 6.13379 16.6878C6.29722 16.9548 6.46765 17.2056 6.63342 17.4542C6.79685 17.7005 6.9346 17.9905 7.11203 18.2506C7.50893 18.8352 7.60232 18.6902 6.59139 19.7282C6.15714 20.1747 5.83962 20.5844 5.39135 21.0286ZM43.0269 21.7214C42.9475 20.2783 42.679 19.1183 43.3141 18.3864C43.6339 18.0181 43.9281 17.8869 44.3764 17.5371C44.8036 17.2056 44.9974 16.8581 45.2822 16.5704C46.3889 16.7108 45.2402 17.6821 44.9787 17.9053C45.2355 18.0733 45.3569 18.0595 45.3616 18.4347C45.1235 18.4692 45.0347 18.3979 44.6939 18.4025C45.1935 18.6073 45.8122 18.8375 45.1562 19.4267C44.7196 19.3392 45.0418 19.2656 44.5701 19.1712C44.8526 19.5464 45.1281 19.6039 44.876 20.2391L44.353 20.3013C44.339 20.2829 44.3297 20.253 44.3227 20.2368C44.1616 19.8939 44.0542 19.6499 43.4168 19.7604C43.7016 19.8801 43.5359 19.7995 43.5102 20.0504C43.4075 21.047 43.5802 20.7708 43.6246 21.4521L43.0316 21.7237L43.0269 21.7214ZM35.0912 19.2863C35.1029 18.6649 35.1729 18.7638 35.5115 18.4577C35.8103 18.1861 35.7916 18.0572 36.0298 17.781C36.3309 17.4335 38.0796 17.1757 38.9762 16.1032C39.9427 14.9501 38.8571 14.8327 39.7116 14.5105C39.7606 15.8546 39.6672 16.1538 40.5498 16.8259C41.3226 17.4128 41.9763 17.3967 43.1063 17.3046C43.0059 17.0146 42.8261 16.911 42.9639 16.6279C43.2674 16.0157 44.0869 16.6302 44.7639 16.7822C44.5398 17.4887 43.265 17.9191 42.8985 18.5245C42.4712 19.2287 42.8588 20.7961 42.7584 21.7582C41.9436 22.3497 41.9529 22.5684 41.6167 22.8745C41.3716 22.6926 41.2338 22.4947 40.9163 22.2853C40.1575 21.7835 39.1583 21.3784 38.2874 21.0815C37.6991 20.8813 37.8812 20.9641 37.5894 20.5084C37.4703 20.3243 37.2041 19.8916 37.0314 19.7949C36.7956 19.6637 35.3294 19.2794 35.0912 19.2817V19.2863ZM23.3196 15.1756C24.4846 14.812 24.6714 14.5726 25.4769 15.2194C25.6613 15.3667 25.7594 15.4795 25.9251 15.6406L26.7703 16.3886C27.0341 16.6279 26.9898 16.4968 27.1555 16.8029L26.3711 17.2218C26.0722 17.3645 25.8341 17.5233 25.5446 17.5854L22.9717 15.3068L23.3196 15.1756ZM8.744 11.7624C8.75567 11.7532 8.77435 11.7348 8.78836 11.7233L9.65453 11.0765C10.439 10.4988 12.225 9.42396 13.1262 9.28816C13.2196 9.59428 15.0127 12.7244 15.3396 13.1249C15.7178 13.0582 16.026 12.8948 16.3762 12.7797L18.3233 12.0869C19.6494 11.6588 19.0447 11.4217 20.4502 13.2906C20.672 13.5829 20.8074 13.8223 21.0129 14.0778C21.2207 14.3379 21.4145 14.5634 21.5499 14.9133C21.3561 15.0191 21.2487 15.0421 20.9826 15.1089L19.4813 15.6636C19.0634 15.8615 17.9614 16.4783 17.6392 16.2827C17.4385 16.1607 16.5676 14.9409 16.4182 14.7222C16.0983 14.2527 15.6968 13.5507 15.2578 13.1594C15.1154 13.1065 13.0305 14.1123 12.741 14.2642C12.3931 14.4483 12.0499 14.7936 11.8071 15.0767C11.4546 15.4864 11.3309 15.5991 10.9503 15.9582C10.6818 15.7096 10.5627 15.3137 10.3363 14.9271L8.65294 11.8406L8.74166 11.7601L8.744 11.7624ZM3.08933 10.8993C3.22007 10.6783 5.933 8.30308 6.25753 8.13276C6.4303 8.30768 8.21635 11.5667 8.26538 11.8452C7.9105 12.2181 6.78284 12.5587 6.45598 12.9822C6.05674 13.5001 5.5828 14.1468 5.13453 14.5795C4.93842 14.4299 3.82243 12.3309 3.57962 11.8706C3.40218 11.5368 3.19906 11.3113 3.08933 10.8993ZM1.19588 11.0581C0.500131 9.7761 0.565503 9.90499 1.50172 9.16848C1.74453 9.27896 2.3679 9.74618 2.46829 9.95332C2.3072 10.2065 1.48771 10.9039 1.19821 11.0581H1.19588ZM21.8908 11.1363C21.1296 11.1317 20.3802 11.3044 19.7428 11.2836L17.4221 8.38364C17.2634 8.21562 17.198 8.22713 17.198 7.91181L19.8409 8.07522C20.2354 8.81404 21.6503 10.6001 21.8908 11.134V11.1363ZM10.934 5.95085C11.576 5.7345 14.3426 4.66426 14.8563 4.68268L16.3482 6.99808C16.4322 7.12927 16.7591 7.64483 16.8174 7.70467C16.5676 7.96014 16.2408 8.00848 15.8509 8.09364C15.1668 8.24094 13.766 8.81404 13.0889 8.97515C13.0235 8.9107 13.0282 8.91991 12.9511 8.83245L10.9363 5.95085H10.934ZM31.874 6.68046C31.7829 6.33752 31.4421 5.84268 31.2063 5.36165C30.765 4.46402 30.6996 4.45712 31.2506 4.13259C31.3954 4.04744 32.7962 2.79767 33.5877 2.45473C33.7651 2.94267 34.5029 5.11077 34.4725 5.54577C34.0639 5.85419 33.4266 6.13038 32.9503 6.35133C32.2359 6.68276 33.0507 6.65284 31.874 6.68046ZM32.453 30.4306C32.5324 30.6424 32.418 30.4651 32.6328 30.5273L32.6958 30.3961L33.4896 30.3869C33.0437 30.2235 32.4647 30.3385 32.474 29.7977C32.9736 30.0739 33.5573 30.1912 34.225 30.0232C34.3301 29.8736 34.1667 29.8391 34.3534 29.9127L33.8702 29.9104L32.7028 29.7493L32.8522 28.4673L34.2881 28.3776C34.5566 28.152 34.9068 28.1566 35.1683 28.3776L36.8889 28.3661L36.8469 29.5951C36.8656 29.6089 36.8936 29.6043 36.903 29.6343C36.9987 29.9243 36.8189 29.5376 37.1691 29.846C37.0244 30.3938 36.7255 30.3477 36.1605 30.5227L36.9076 30.4697L36.9636 30.6424C37.1668 30.9208 36.903 30.5917 37.0781 30.7689L37.1714 30.8633C37.1831 30.8748 37.2088 30.8955 37.2251 30.9116C37.2065 31.6735 37.0547 31.3397 36.4757 31.5699L36.2889 31.8231C36.2819 31.8323 36.2656 31.8507 36.2562 31.8668C36.7559 31.6574 36.9123 31.6366 37.4539 31.7563L37.1084 31.9197C36.7909 31.998 36.5574 32.044 36.2983 32.3133C36.2796 32.5435 36.3169 32.5274 36.4243 32.6954C36.7255 32.6678 36.8096 32.4215 37.2975 32.3133C38.194 32.1154 37.6104 32.0233 38.2454 32.0072C38.9738 31.9888 39.4898 32.5803 39.5412 33.2846C38.9318 33.5032 38.6586 33.6943 37.8462 33.7081C37.3629 33.715 36.4407 33.6897 36.2492 33.2984C35.9971 33.2777 36.1488 33.2616 36.0858 33.3789C37.0547 34.1707 38.3505 33.8991 39.4758 33.4986C39.4268 34.097 39.3544 34.0188 38.9575 34.2628L39.4525 34.2697C39.4711 34.2512 39.5202 34.2144 39.5295 34.2006L39.5925 34.0786C39.6042 34.0418 39.6252 33.807 39.6299 33.7748C39.8307 32.4192 39.4688 32.7368 39.1886 32.044C38.9388 31.9773 38.8641 31.9036 38.6563 31.8438C38.3575 31.7586 38.2034 31.8139 37.9255 31.777C37.1714 31.6758 37.4493 31.2661 37.4259 30.815C37.1598 30.6493 37.008 30.7436 37.1668 30.3224C37.2648 30.0693 37.4866 30.0531 37.2602 29.7378C36.9847 29.3512 37.0057 29.6711 37.064 28.3016L37.6641 28.0853L37.3582 26.8424C38.626 27.2659 41.1871 29.0128 42.4035 28.7343C42.9475 28.61 43.2884 27.9196 43.8721 28.1428C44.0168 28.4627 43.9678 29.1624 43.9468 29.5698L43.6036 29.7424C43.6386 30.1521 43.6736 30.1245 43.8651 30.3639L43.5989 30.5779C43.6363 31.0751 43.8744 31.3789 43.4075 31.6574C43.216 32.0187 43.2253 32.1522 42.9102 32.3985C42.7841 32.4974 42.4315 32.7736 42.3218 32.9186C41.8315 33.5746 42.3078 33.8577 42.6066 34.2789L43.0035 34.2628C42.7374 34.0441 41.9272 33.5631 42.4899 33.0314C42.5996 32.7874 43.2534 32.2097 43.4471 32.1246C43.9164 31.922 44.381 32.4629 44.7593 32.5435C45.5134 32.0486 45.1725 31.8208 45.2659 31.464L46.2325 31.1878C46.3679 31.5515 46.55 32.4721 46.2535 32.7736C46.1624 33.3835 45.4877 33.9474 44.8503 34.2443L45.4106 34.2812C45.6511 34.0027 45.8285 33.9129 46.0293 33.6321C46.2091 33.3743 46.3188 33.1074 46.529 32.7943C46.7648 33.0291 46.8675 33.3905 47.1103 33.6252C47.3508 33.8554 47.6823 34.0694 47.9088 34.2766L49.933 34.2835C50.2762 34.0901 50.2108 34.2144 50.5703 33.9014C51.5066 33.0866 50.3019 32.4261 49.9843 32.0808L49.8022 31.9151L49.7532 32.0118C49.9587 32.3593 50.3275 32.3801 50.5096 32.7805C51.2171 33.6275 49.8863 34.2881 48.8613 34.2098C47.9695 34.1408 46.9422 33.4411 46.7858 32.7C46.4799 32.3916 46.6317 31.5492 46.6971 31.1027L47.1453 31.1165L47.3554 31.0497C46.9702 30.9093 47.2924 31.0152 47.1383 30.8886C46.7321 30.838 46.8045 30.8288 46.7531 29.9519C48.336 30.1544 47.9391 30.0071 48.9897 29.7424C48.866 30.1038 48.9104 30.014 48.5905 30.1452C48.4831 30.3063 48.6465 30.2189 48.4504 30.3109C48.5625 30.3017 48.7119 30.2879 48.7679 30.2672C48.7843 30.2603 48.8076 30.2511 48.824 30.2442L49.0481 30.0785C49.4123 29.8 49.0645 29.5238 49.0201 29.4777L48.8917 29.3558C48.775 29.19 48.7213 28.4121 48.6956 28.1428C49.0481 28.0853 49.2092 28.0646 49.452 27.9058L49.1298 25.7054L49.6575 25.5236C49.473 24.2669 49.3446 24.6628 49.9516 23.5419C50.2061 23.0724 50.1034 23.4269 50.7851 23.0954C51.3548 22.8192 51.0723 22.6696 51.3805 22.3474C51.8288 21.8802 51.684 22.3865 51.8288 21.5326C51.9011 21.0976 52.1696 21.1529 52.1136 20.5407C52.0786 20.1632 51.9362 19.7926 52.0529 19.4658C52.1766 19.1206 52.5175 18.9042 52.326 18.5291L51.9969 18.437C51.5019 18.3219 51.7237 18.2529 51.2661 17.8961C50.8669 17.9468 50.6637 18.2137 50.1898 18.3311C50.1711 17.857 50.0847 17.3414 49.8489 17.0676C48.8287 19.4911 48.6886 18.8789 47.6543 18.6096L47.6613 17.8271C47.8574 17.6637 48.1819 17.5624 48.4154 17.4013C48.7446 17.1734 48.7376 16.9893 49.2512 16.9548C51.2544 16.8121 51.6747 16.2896 51.8661 16.6095C52.1089 17.0146 51.628 16.6878 51.9548 16.9939C52.3774 17.3898 54.021 17.0975 54.7471 16.2022C55.2818 15.5439 54.8382 12.591 54.6047 11.7233C54.2312 10.3377 53.6662 9.26745 52.9307 8.32149C51.3034 6.23395 48.2333 5.20284 45.5601 5.94625C43.5242 6.51244 42.2308 7.62641 41.1825 9.21221C40.9 9.63801 40.5754 10.5471 40.3373 10.8625C40.4027 11.3527 40.335 11.0949 40.5381 11.1686C41.1311 9.32039 42.4362 7.68395 43.9468 6.87379C49.0925 4.11188 54.1284 7.66784 54.6561 13.4932C54.7098 14.0801 54.7308 14.6992 54.7215 15.3091C54.7145 15.9674 54.3969 16.308 53.9183 16.4829C53.7012 16.7729 52.2303 17.1987 52.27 16.6625L52.4054 16.3448C52.5128 16.1492 52.5689 16.0595 52.5922 15.8569C52.5222 15.6221 52.6039 15.8224 52.5058 15.7671C52.3494 15.6774 52.4825 15.972 52.4171 15.7349C52.4124 15.7142 52.3821 15.728 52.3657 15.7188L52.1043 15.8845C50.6287 16.9041 49.7088 16.5543 48.9454 16.7338C48.6022 16.8144 48.1399 17.5739 47.0076 17.4289C45.5367 17.2402 46.2254 16.3771 45.385 16.3564C44.876 16.3425 45.3289 16.5635 44.7803 16.5474C43.83 16.5198 42.8448 15.5094 42.5319 15.3045L42.2191 15.2562L42.2611 15.8385C42.2751 16.239 42.7024 16.6993 42.8144 17.1113C42.149 17.2079 41.5303 17.1527 41.0027 16.8489C39.4128 15.9421 39.9497 14.0479 40.2603 12.1122L40.0618 12.2342C40.0455 12.2434 40.0081 12.2894 39.9941 12.271C39.9824 12.2526 39.9497 12.2963 39.9264 12.3079L39.4921 12.0662C39.2096 11.9304 39.2143 11.935 38.9575 11.9005C38.8641 11.889 38.7637 11.9373 38.5699 11.8153L38.3411 11.5644C38.2734 11.4908 38.3855 11.5138 38.2197 11.4747L38.4275 12.9132C38.4952 12.6301 38.5559 12.3562 38.7217 12.1629C39.6789 11.9741 39.9941 12.3493 39.847 13.24C39.805 13.4955 39.7957 13.9949 39.6766 14.1975C39.3801 14.6946 39.0229 14.3609 39.0205 14.3586C39.1303 15.1089 39.1723 15.4933 38.675 16.041C37.5357 17.2908 36.422 17.1757 35.9177 17.6844C35.4764 18.1286 35.5325 18.3956 34.7107 18.6119C33.7628 18.8605 33.569 18.4554 32.8452 18.3956C32.1471 18.338 30.5455 18.6902 29.3688 17.6199C28.8108 17.1113 28.7175 16.9364 28.7268 16.0917C28.533 16.1906 28.7128 16.0525 28.5237 16.3218C28.4303 16.453 28.4513 16.4461 28.3579 16.5612C27.7812 16.4323 27.7322 16.186 27.3983 15.9029C27.3797 15.8891 27.361 15.8661 27.3493 15.8523C27.1509 15.5991 27.1976 15.5577 27.1135 15.2907L26.5905 15.1941C26.5158 15.0491 26.5578 15.1434 26.5088 14.9156C26.4248 14.5887 23.922 12.3608 23.6675 11.9189C23.7772 11.8429 23.6395 11.9143 23.8496 11.8268C23.8729 11.8153 23.9476 11.79 23.9733 11.7808L24.8932 11.5046C25.2154 11.4056 25.8131 11.2975 25.9695 11.1248C26.0022 10.9982 25.9835 11.0351 26.0255 10.897C25.9275 10.5563 24.7298 8.69435 24.578 8.21792C24.8745 7.98316 27.2092 6.47562 27.5781 6.39276L28.01 7.14078C28.0194 7.15689 28.0287 7.1753 28.038 7.19141L28.2248 7.77602C27.9867 7.92332 27.7112 8.14657 27.5991 8.39515L27.6248 8.60229C27.8279 8.31919 27.6201 8.1903 28.0824 8.21792C28.1758 8.07292 28.3462 7.92102 28.4653 7.99927L28.6848 7.7553C28.6988 7.7461 28.8715 7.63332 28.8785 7.62872C29.2614 7.38705 30.0436 7.00038 30.5268 7.09014C30.7673 6.81165 32.7799 6.79324 33.2585 6.79324C34.0569 6.79093 35.5698 6.63443 36.1442 6.97276C36.4897 6.96125 36.2866 7.15689 36.3426 6.75641L35.5862 6.5907C35.1472 6.0245 34.3161 0.859729 33.9028 0.367188C33.4943 0.673299 32.9479 1.32005 32.6117 1.6791C32.3853 1.92076 32.2125 2.07957 31.9837 2.32354C31.5098 2.82989 28.6988 4.55839 27.9703 5.0095C25.1337 6.76792 24.1414 7.32721 20.8845 8.51253C20.658 8.26856 19.3739 5.25347 19.0564 4.50085C19.0261 4.4295 18.97 4.27299 18.942 4.21775C18.7879 3.92085 19.0027 4.11648 18.7015 3.98299C18.1155 3.72521 16.4696 3.5595 15.7388 3.59402C14.2212 3.66767 11.9472 4.56069 10.5581 5.19363C7.85214 6.42498 8.6366 6.013 6.08709 7.50673C5.35866 7.93253 4.66292 8.43888 3.92749 8.80943C3.54226 8.57237 3.28077 8.04991 2.96325 7.76681C2.65507 7.81284 1.5134 8.22943 1.19121 8.37903C0.957735 8.48721 0.0962264 9.38253 0.0285197 9.59658C-0.160592 10.1904 0.649553 10.7543 0.733603 11.1594C0.787301 11.4148 0.731268 13.6681 0.99976 14.3241C1.82625 16.3448 2.62238 18.1631 3.37416 20.2576C4.78433 24.1864 6.54236 28.3408 7.97821 32.2811C8.17433 32.8174 8.41247 33.5378 8.66462 34.0395L12.7784 34.0441C12.5589 33.0337 12.2484 33.4618 13.2196 32.2834C13.4321 32.0256 13.5909 31.7747 13.8056 31.5193C14.0345 31.25 14.2562 31.1234 14.4897 30.8518C14.9473 30.3178 15.3512 29.9427 15.8205 29.4777L18.5054 26.755L21.6549 24.4879C21.9678 24.2715 23.0488 23.4959 23.3149 23.413C23.4177 25.3993 22.953 24.6375 24.041 26.3038C24.4356 26.9069 24.2932 26.8309 25.0169 27.1577C25.4442 27.3488 25.8481 27.5421 26.2753 27.7423C26.782 27.9771 27.2419 27.862 27.87 27.8091C28.3042 27.7723 29.119 27.7331 29.4972 27.6042C30.291 27.3373 31.4537 26.6491 32.1401 26.5294C32.1121 27.0703 31.895 27.7124 31.9837 28.2188L32.6117 28.3822L32.5791 29.4662C31.867 30.037 32.3876 29.8046 32.4507 30.4329L32.453 30.4306Z" fill="#030203"/>
<path fill-rule="evenodd" clip-rule="evenodd" d="M42.4409 25.7815L42.4152 23.2567L41.1358 23.3948L41.2035 25.4478C41.1545 25.3488 41.0821 24.6906 41.0307 24.4696C40.9467 24.106 40.984 23.694 40.9654 23.3119L33.2865 20.6191C32.7705 20.4418 31.0802 19.7675 30.6273 19.8066C30.5806 20.7871 31.6125 20.2002 31.6522 21.1231C31.6709 21.5328 31.5215 21.8642 31.818 22.1427C32.0655 22.3729 32.348 22.343 32.4367 22.7918C32.4904 23.0634 32.4647 24.0991 33.1231 24.564L39.8074 27.7793C42.3475 28.9969 41.9273 28.8979 44.813 26.9392L49.2349 23.9541C49.3306 23.8666 50.2038 22.603 50.2388 22.4995C50.3579 22.145 50.1408 21.7952 50.3743 21.4476C50.5634 21.1691 50.5867 21.4154 50.9579 20.7572C51.1891 20.3452 50.9883 20.214 51.2264 19.8411C51.579 19.2887 51.7914 19.7214 51.8101 19.1529C51.5019 19.0103 51.3852 19.0701 51.084 19.2289C50.8786 19.3371 50.6568 19.4522 50.4023 19.5764L43.4682 22.7895C42.6907 23.137 42.574 22.9391 42.574 23.8827C42.574 24.3592 42.532 25.3765 42.4409 25.7861V25.7815Z" fill="#FBB211"/>
<path fill-rule="evenodd" clip-rule="evenodd" d="M45.4433 15.0575C46.0293 15.2416 47.2527 16.2428 49.1065 15.2393C49.1321 14.8964 48.8146 15.5822 49.0037 15.0506C49.4543 15.0253 49.5944 15.1058 49.6411 15.4649C49.3399 15.3014 49.6248 15.3452 49.2349 15.283C49.0388 15.5431 48.95 15.451 48.7819 15.7157C48.6278 15.9551 48.6629 16.084 48.4714 16.3464C48.2449 16.6594 47.764 17.0484 47.241 17.0299C46.2208 16.9977 45.9803 15.7917 45.8379 15.5592C45.6371 15.2324 45.5414 15.4372 45.3803 15.0552L45.1304 15.1587C45.1211 15.1587 45.0954 15.1518 45.0884 15.1518C45.0814 15.1518 45.0604 15.1472 45.0487 15.1403C45.2308 14.8112 45.3126 14.8227 45.7235 14.8342L45.5133 14.9608C45.4993 14.9746 45.4596 15.0391 45.441 15.0575H45.4433ZM45.3943 12.6776C45.3873 12.8986 45.539 13.5085 45.3009 13.6029C45.3079 13.9412 45.3499 14.0954 44.9063 14.1368C44.7079 14.1552 44.6448 14.1506 44.4557 14.0839C44.1195 13.9642 44.3086 14.0287 44.2292 13.9343C44.1078 13.5937 44.0145 13.6627 43.8043 13.4533C43.5405 13.1909 43.732 13.2093 43.4051 13.062C43.3888 13.0528 43.3677 13.0367 43.3607 13.0275L43.2767 12.9515C43.1553 12.795 43.1413 12.6408 43.1133 12.4613C42.7397 12.482 42.7374 12.5464 42.3381 12.4337C42.693 12.2403 42.7444 12.4935 43.0712 12.146L42.763 12.0447C42.4619 11.9779 42.6206 12.0792 42.3218 11.8398C41.4323 11.1241 40.1879 12.4406 41.7661 13.6581C42.1957 13.5822 41.8759 13.5683 42.1303 13.4487C41.9085 14.3854 41.9879 14.5304 42.5179 15.2991C42.8308 15.5017 43.816 16.5121 44.7662 16.542C45.3149 16.5581 44.862 16.3372 45.3709 16.351C46.2138 16.3717 45.5227 17.2348 46.9935 17.4235C48.1235 17.5685 48.5858 16.809 48.9314 16.7284C49.6948 16.5489 50.6147 16.8987 52.0902 15.8791L52.3517 15.7134C52.5035 15.2646 52.6972 15.1104 52.6015 14.5074L52.7183 14.4568C52.7346 14.4499 52.7579 14.4406 52.7766 14.4337L53.0078 14.3394C53.379 14.1599 53.6778 13.8652 53.8342 13.4763C53.7198 13.2783 53.8109 13.3497 53.7385 13.1725C53.6405 12.9308 53.7479 13.0712 53.5821 12.9193C53.3813 13.1103 53.5214 12.9837 53.2622 13.0735C53.2412 13.0804 53.2202 13.085 53.1992 13.0919C53.0591 13.1425 52.5572 13.3497 52.6856 13.4809C52.7603 13.2553 52.5221 13.1149 52.4848 13.085C52.242 13.3704 52.0435 13.1978 51.7167 13.0689L51.2614 13.7018C51.1377 13.9504 51.2357 13.8376 50.9836 14.0102C50.5376 14.3141 49.8512 14.6133 49.3586 14.2312C48.943 13.9067 49.0504 12.8456 49.1578 13.3428C49.2862 13.1863 49.2372 13.2899 49.2349 13.0436C49.1415 12.6615 50.4653 11.2552 51.4225 11.8145C52.0692 12.192 51.7377 11.9964 52.4521 11.8997C52.3073 12.0999 52.3354 12.0493 52.1276 12.1391C51.5859 12.3784 51.8497 12.1989 51.7727 12.3784C51.9151 12.5142 51.8404 12.5004 52.1299 12.5602C52.305 12.5948 52.4451 12.581 52.6272 12.5787L52.7743 11.6718C51.9758 11.3381 51.0139 11.0964 50.1361 11.0205L49.8629 10.2817C49.7392 10.0354 49.8069 10.1574 49.6971 10.04L49.7065 11.0251C48.9594 10.9514 48.3337 10.8087 47.5142 10.7765C46.711 10.7443 45.9709 10.7811 45.1468 10.7742L45.3406 9.75C45.3196 9.83516 44.8199 10.5717 44.7079 10.7397L42.3708 11.0159L42.4946 11.8191C42.8564 11.8928 42.9638 11.9388 43.1599 11.7087C43.0922 11.4256 42.8074 11.6511 42.5926 11.1356C43.7203 11.7064 43.5032 10.9376 44.4721 11.3818C44.7872 11.5268 45.567 12.3094 45.3873 12.673L45.3943 12.6776Z" fill="#F1C691"/>
<path fill-rule="evenodd" clip-rule="evenodd" d="M35.2289 17.6475L35.0397 17.9145C35.0281 17.926 35.0117 17.9421 35.0001 17.9536C34.2436 18.6993 33.6296 18.0364 33.3868 17.9237C33.2443 17.7027 32.7587 17.0721 32.4505 16.9478C32.3081 16.8902 32.3618 16.9179 32.2077 16.8695L31.9696 16.7936L32.2731 16.5634C32.2848 16.6509 31.9673 16.9294 33.0669 16.9846C33.842 17.0237 34.5308 16.8396 35.1892 16.4944C35.4787 16.3425 35.6351 16.2734 35.8079 15.988C35.8149 15.9742 35.8265 15.9512 35.8335 15.9397C36.0717 15.5139 35.7472 16.0456 35.9036 15.797L36.3495 15.9121C36.2911 15.942 35.7285 15.9581 35.6328 16.5726C35.5394 17.1687 35.5744 17.2079 35.2265 17.6498L35.2289 17.6475ZM36.4966 12.3239C38.0048 11.8106 37.741 14.3125 36.4709 14.8234C35.6795 15.141 35.2242 14.4459 35.3853 13.6749C35.5324 12.9798 35.9199 12.5172 36.4943 12.3239H36.4966ZM34.2063 11.974C34.7316 12.5103 33.6529 13.1824 32.9782 13.3711C31.3906 13.8199 31.3019 13.332 30.3353 13.4701L30.9377 13.8636C31.0941 13.9764 31.024 13.8475 30.996 13.935C31.1244 14.1191 31.0847 14.0455 31.2365 14.2066C31.8459 14.8487 32.1447 15.7256 31.3299 16.011C30.926 16.1537 30.3913 15.942 30.0785 15.7279C29.6372 15.4218 29.5298 15.0605 29.3407 14.8763C29.1703 14.7843 29.3034 15.0904 29.1586 14.6554C29.0792 14.4183 29.1539 13.9534 29.2777 13.7601L28.3064 13.7302C28.3741 13.9948 28.4909 14.248 28.5983 14.5127C28.687 14.7313 28.8621 15.019 28.8901 15.2009C28.7897 15.1203 28.5376 14.7429 28.4255 14.6071C27.2698 14.5771 27.1041 14.8833 27.3889 15.8983C27.7228 16.1813 27.7718 16.4299 28.3485 16.5565C28.4418 16.4414 28.4208 16.4506 28.5142 16.3171C28.7057 16.0479 28.5236 16.186 28.7173 16.087C28.7057 16.9317 28.8014 17.1066 29.3594 17.6152C30.5361 18.6878 32.1377 18.3333 32.8358 18.3909C33.5595 18.4507 33.7533 18.8558 34.7012 18.6072C35.523 18.3909 35.467 18.1239 35.9083 17.6797C36.4126 17.1733 37.5262 17.2884 38.6655 16.0364C39.1628 15.4909 39.1208 15.1042 39.0111 14.3539C39.0134 14.3539 39.3706 14.6899 39.6671 14.1928C39.7885 13.9902 39.7979 13.4908 39.8376 13.2353C39.9847 12.3446 39.6695 11.9694 38.7122 12.1582C38.5465 12.3515 38.4858 12.6254 38.4181 12.9085L38.2103 11.47L36.548 11.3986L34.1222 11.3457L33.737 11.4746C34.1409 11.7968 34.0382 11.5528 34.2016 11.9717L34.2063 11.974Z" fill="#BD6B43"/>
<path fill-rule="evenodd" clip-rule="evenodd" d="M8.64819 11.8337L10.3315 14.9202C10.558 15.3068 10.6771 15.7027 10.9455 15.9513C11.3261 15.5922 11.4498 15.4771 11.8024 15.0698C12.0452 14.7867 12.3884 14.4414 12.7363 14.2573C13.0234 14.1054 15.1107 13.0996 15.2531 13.1525C15.692 13.5438 16.0913 14.2458 16.4134 14.7153C16.5629 14.934 17.4314 16.1538 17.6345 16.2758C17.9567 16.4714 19.0587 15.8546 19.4766 15.6567L20.9778 15.102C21.244 15.0352 21.3537 15.0122 21.5451 14.9063C21.4097 14.5565 21.2159 14.3309 21.0082 14.0709C20.8027 13.8154 20.665 13.576 20.4455 13.2837C19.0377 11.4148 19.6423 11.6519 18.3186 12.08L16.3714 12.7728C16.0212 12.8878 15.7107 13.0513 15.3348 13.118C15.0079 12.7175 13.2149 9.58736 13.1215 9.28125C12.2203 9.41704 10.4342 10.4896 9.64978 11.0696L8.78361 11.7163C8.77193 11.7278 8.75092 11.7463 8.73925 11.7555L8.65053 11.836L8.64819 11.8337Z" fill="#979191"/>
<path fill-rule="evenodd" clip-rule="evenodd" d="M13.4181 19.6323C13.5115 19.7658 13.5559 19.8556 13.6609 20.0029L15.7318 22.8476L17.5996 20.9902C18.1062 20.622 19.3996 19.9868 19.9833 19.5356L18.1622 17.5609C17.9031 17.3054 17.791 17.1443 17.5786 16.875C17.219 16.9533 13.9668 19.3377 13.4158 19.6323H13.4181Z" fill="#979191"/>
<path fill-rule="evenodd" clip-rule="evenodd" d="M43.2229 8.49178L43.349 8.9475C43.356 8.96361 43.3653 8.99123 43.3794 9.00964C43.6805 8.82091 43.4634 8.9452 43.6432 8.64138C44.6798 8.58385 43.886 8.32376 44.6868 8.59765C44.9016 8.67131 44.9553 8.64369 45.1327 8.77948L45.2635 8.90146C45.2728 8.91067 45.2938 8.93139 45.3078 8.9452C45.6604 8.77258 45.2775 8.97281 45.4946 8.77948C45.6183 8.669 45.4596 8.56773 45.602 8.72194C45.8308 8.61146 45.7281 8.48488 45.7794 8.84392C45.9219 8.72194 45.8705 8.78638 45.9849 8.61837C46.0316 8.54932 46.0503 8.47567 46.0783 8.41813C46.3865 8.59765 46.0503 8.50099 46.4192 8.56543L46.5943 8.72194C47.4114 8.57464 48.49 8.6667 49.1484 8.70813L49.2208 8.70583C49.3119 8.68281 49.2652 8.70353 49.2955 8.64369L49.4193 9.17305C49.4286 9.19837 49.4333 9.21678 49.4449 9.2444C49.4566 9.27202 49.466 9.29274 49.4776 9.31805C49.4893 9.34567 49.5056 9.37099 49.5173 9.39401C49.529 9.41932 49.5407 9.44924 49.5593 9.47456L49.578 8.99813L49.7835 9.44924C49.6341 8.90377 49.7368 9.33186 49.9516 9.16154L50.1664 9.80829C50.108 9.37099 50.3345 9.40091 50.3975 9.03726C50.5749 9.17996 50.764 9.16154 50.7711 9.16385L50.8551 9.19147C50.8644 9.19607 50.8855 9.20758 50.8925 9.21218C51.0839 9.34797 51.0372 9.34337 51.0816 9.48147C51.0956 9.46535 51.1143 9.41472 51.1213 9.43083C51.2006 9.60805 51.0372 9.25131 51.4318 9.30885C51.4435 9.31115 51.4691 9.32266 51.4808 9.32496C51.4925 9.32726 51.5182 9.33647 51.5298 9.33647L51.7446 9.27893C51.8987 9.21218 51.7096 9.25361 51.8684 9.22829L52.0131 9.25821C52.0271 9.26742 52.1439 9.46075 52.2933 9.56893C52.0715 8.41813 52.0598 9.50218 52.0435 8.58154C52.0411 8.5217 52.1322 8.41353 51.8474 8.21559C51.5952 8.04067 51.8147 8.22019 51.8147 8.22019C52.0388 7.364 50.8971 7.32257 50.8014 7.23281C50.4909 6.94511 51.287 7.33638 50.094 6.66662L49.585 6.47098C49.4052 6.42265 49.1391 6.33979 48.992 6.30757C48.4667 6.19709 46.4565 6.05209 45.651 6.41574C45.3382 6.55614 45.3732 6.53312 45.1864 6.53543C44.8386 6.54003 44.5187 6.63439 44.2899 6.91289L44.2339 7.00035C44.0984 7.23281 44.3926 6.87606 44.1685 7.14535L43.8907 7.3686C43.5895 7.77368 43.851 7.27884 43.851 7.68622L43.7879 7.91638C43.6058 8.19027 43.4377 8.0844 43.2183 8.50099L43.2229 8.49178Z" fill="#EA8613"/>
<path fill-rule="evenodd" clip-rule="evenodd" d="M12.9091 30.3226C13.1052 30.005 13.5418 29.494 13.7963 29.1488C14.6251 28.0233 14.8306 27.8254 15.9559 27.0866C16.2781 26.8748 16.9949 26.3938 17.1653 26.1636C16.9528 25.3166 15.8018 23.9978 15.4796 23.4316L13.6936 24.6354C12.7714 25.2361 13.1683 25.0197 12.3278 26.3685C11.3308 27.9704 11.3892 27.4088 12.3651 29.3076C12.5192 29.6068 12.6826 30.0372 12.9114 30.3226H12.9091Z" fill="#979191"/>
<path fill-rule="evenodd" clip-rule="evenodd" d="M40.5405 13.0952L40.6666 12.4254C40.6362 13.6752 41.0985 13.422 41.4277 13.9652C41.5491 14.1677 41.5537 14.8168 41.6822 15.2886C41.7405 15.5073 42.3475 16.5729 42.3382 16.8744C41.7966 17.1161 41.1102 16.6696 40.893 16.3773C41.1031 15.9354 41.0494 16.2415 41.0565 16.2438C40.1903 16.2 40.3093 15.9192 40.2323 14.826C40.1973 14.3173 40.3047 14.1884 40.2953 13.7235C40.2767 12.6441 40.5428 13.0952 40.5428 13.0952H40.5405ZM40.5288 11.1618L40.258 12.1101C39.9475 14.0457 39.4081 15.94 41.0004 16.8468C41.5281 17.1483 42.1468 17.2035 42.8122 17.1092C42.6978 16.6972 42.2705 16.2369 42.2588 15.8364C41.9553 15.5395 41.8316 14.918 41.7592 14.5153C41.5818 13.5302 41.6892 13.9675 41.1919 13.353C40.9514 13.0538 40.7249 12.5221 40.872 12.0595C41.0728 11.4311 41.5141 11.6107 42.1678 11.5186L42.2822 11.079L41.5211 11.1803C41.7312 9.87986 42.616 8.31017 43.4822 7.85446C43.3935 8.05009 41.9273 9.63589 41.9833 10.7821C42.3966 10.8189 43.4355 10.6049 44.1966 10.5795C44.6636 10.5634 44.6659 10.6348 44.7733 10.2205L44.6402 10.2895C44.2387 10.5105 44.2994 10.4138 43.627 10.4253C43.2487 10.4322 42.5623 10.5657 42.3055 10.5151C42.3079 10.1399 42.5086 9.7947 42.6697 9.45176L43.2301 8.492C43.4495 8.07541 43.6176 8.18128 43.7997 7.90739L43.8628 7.67723C43.8628 7.27215 43.6013 7.7647 43.9025 7.35961L44.1803 7.13636C44.4044 6.86707 44.1103 7.22612 44.2457 6.99136L44.3017 6.9039C44.5305 6.62541 44.8504 6.53104 45.1982 6.52644C45.3827 6.52414 45.35 6.54715 45.6628 6.40676C46.466 6.0431 48.4785 6.1881 49.0038 6.29858C49.1509 6.3308 49.4171 6.41366 49.5968 6.46199L50.1058 6.65763C51.2988 7.32509 50.5027 6.93612 50.8132 7.22382C50.9089 7.31358 52.0506 7.35501 51.8265 8.2112C51.8265 8.2112 51.6093 8.03398 51.8592 8.2066C52.144 8.40454 52.0529 8.51271 52.0553 8.57255C52.0716 9.49549 52.0833 8.40914 52.3051 9.55994C52.5292 9.70264 52.5642 9.89827 52.6109 10.1514C52.6857 10.5726 52.7277 10.522 52.4615 10.7268C52.13 11.0076 52.8234 10.713 52.3098 10.7821L51.3455 10.7407C50.505 10.6992 50.3603 10.5105 50.1782 9.80161L49.9634 9.15486C49.7462 9.32518 49.6459 8.89708 49.7953 9.44256L50.3136 10.8097C51.4319 10.9478 52.2234 11.3575 53.1643 11.5002C53.0872 10.6279 52.8818 10.0226 52.5105 9.28375C52.3728 9.00986 52.221 8.85105 52.1277 8.58406L52.4265 8.89017C52.9565 9.58065 53.5448 11.0399 53.4935 11.8961L53.0055 11.7902L52.9215 12.2114C53.5402 12.1769 54.0725 12.3103 54.1589 12.8673C54.2639 13.5417 53.7596 13.8524 53.6055 14.2437L53.9954 14.2667C54.3316 13.7235 54.0538 13.5923 54.3993 13.5279C54.411 13.9675 54.5721 15.5487 54.3129 15.8456C54.0748 16.1218 53.9557 15.9837 53.916 16.4762C54.3947 16.3013 54.7122 15.9584 54.7192 15.3024C54.7262 14.6902 54.7052 14.0711 54.6538 13.4865C54.1262 7.66112 49.0925 4.10516 43.9445 6.86707C42.4339 7.67954 41.1288 9.31367 40.5358 11.1618H40.5288Z" fill="#D8AC30"/>
<path fill-rule="evenodd" clip-rule="evenodd" d="M31.3768 10.7619C32.1029 10.5479 31.9231 10.2256 32.5978 9.85509C33.4243 9.39938 33.6204 9.76533 34.2905 9.82978C35.1193 9.80676 34.5146 10.1244 35.0469 10.2095C35.4322 10.2717 35.8664 10.297 36.2353 10.1819C36.5061 9.82287 36.5505 8.77334 36.31 8.2808C35.9808 7.60874 36.2306 7.07247 35.3434 6.99421C34.6804 6.93437 31.4305 7.01953 30.9612 7.14151C30.9145 7.19905 30.9098 7.18755 30.8538 7.30493L30.8071 7.43152C30.5293 8.31533 30.3495 8.75033 30.4359 9.78605L30.7814 9.94255C30.6623 10.3753 30.7441 10.3154 30.9075 10.663C31.4071 10.6215 31.2997 10.2441 31.804 10.5479L31.5472 10.6583C31.4748 10.6929 31.4608 10.6975 31.3721 10.7573L31.3768 10.7619Z" fill="#FBB211"/>
<path fill-rule="evenodd" clip-rule="evenodd" d="M9.70593 22.5347C10.1145 22.2216 10.5254 21.4506 11.1698 20.9834C11.4943 20.7486 12.8718 19.9062 13.0212 19.4896C13.1123 19.2388 13.0726 19.1835 12.7247 18.7232L11.004 16.2306C10.8709 16.0994 10.9433 16.1293 10.7519 16.0879C10.5534 16.226 10.6935 16.2306 10.0351 16.7231C9.76196 16.928 9.55884 17.0845 9.26 17.3054C9.0919 17.4297 8.08097 18.6565 8.05295 18.7992C8.01326 18.9948 8.68799 20.4172 8.81874 20.6589C9.12925 21.2389 9.39541 21.9547 9.70593 22.537V22.5347Z" fill="#979191"/>
<path fill-rule="evenodd" clip-rule="evenodd" d="M3.08228 10.8896C3.19201 11.3038 3.39746 11.5271 3.57256 11.8608C3.81537 12.3212 4.93137 14.4202 5.12748 14.5698C5.57575 14.1371 6.04969 13.4927 6.44893 12.9725C6.77579 12.5467 7.90345 12.2061 8.25833 11.8355C8.2093 11.5593 6.42558 8.29797 6.25048 8.12305C5.92595 8.29336 3.21302 10.6686 3.08228 10.8896Z" fill="#979191"/>
<path fill-rule="evenodd" clip-rule="evenodd" d="M10.9269 5.94224L12.9418 8.82384C13.0188 8.9113 13.0141 8.90209 13.0795 8.96654C13.7566 8.80312 15.1551 8.23233 15.8415 8.08502C16.2314 8.00217 16.5582 7.95153 16.808 7.69605C16.7497 7.63621 16.4251 7.12066 16.3388 6.98947L14.8469 4.67406C14.3332 4.65565 11.5666 5.72589 10.9246 5.94224H10.9269Z" fill="#979191"/>
<path fill-rule="evenodd" clip-rule="evenodd" d="M8.98224 30.6544C9.24373 30.3736 9.73402 29.2344 9.9745 28.7855C10.201 28.3621 11.1885 27.5105 11.2026 27.1859C11.2119 26.9696 9.5239 23.3561 9.46086 23.2617C9.22272 23.5356 9.09431 23.6875 8.86784 24.0028L7.63278 25.6301C7.40865 25.9431 7.17051 26.0996 7.44834 26.5645C8.53398 28.3805 8.31452 28.4242 8.67406 30.2471C8.7441 30.6084 8.72076 30.5186 8.98224 30.6544Z" fill="#979191"/>
<path fill-rule="evenodd" clip-rule="evenodd" d="M20.6229 19.7082C20.777 20.0212 22.2572 21.6691 22.7242 22.164L26.7446 20.3319C26.6068 20.0419 26.6768 19.6322 26.5041 19.3146C26.4247 19.1696 25.9858 18.829 25.8317 18.7093C25.22 18.2352 25.178 17.7841 24.2394 18.2029C23.6861 18.4492 23.051 18.7231 22.4487 18.9671C21.851 19.211 21.2393 19.5287 20.6206 19.7082H20.6229Z" fill="#979191"/>
<path fill-rule="evenodd" clip-rule="evenodd" d="M30.4802 10.8924C29.5673 10.8993 29.1611 10.8303 28.4303 11.1203C28.2038 11.2101 27.8209 11.4724 27.6995 11.5921C27.5011 11.7855 27.3937 12.1284 27.3376 12.4299C27.5618 12.6555 27.319 13.224 28.4653 13.4357C28.8669 13.5094 30.0179 13.4978 30.3448 13.1733L29.9572 12.7728C29.649 12.8879 29.1144 13.1411 28.7151 12.9915C28.2949 12.835 28.1244 12.4552 28.2015 12.0386C28.2809 11.6013 28.6054 11.4103 29.021 11.309C29.7354 11.1341 29.9338 11.477 30.5549 11.3413C30.4662 11.6474 29.9572 12.0663 30.4451 12.782C31.1689 13.8431 34.5449 13.194 34.0966 11.9949L34.2064 11.9765C34.0429 11.5576 34.1457 11.8016 33.7418 11.4793L34.127 11.3505C33.4569 11.4448 33.8702 11.5898 33.1674 11.3827C31.309 10.8372 31.1456 12.0916 31.5238 12.4667C32.1845 12.835 32.5814 12.3102 32.9783 12.3286C32.6818 12.5243 32.5581 12.8281 31.9674 12.8051C31.5308 12.789 31.1806 12.5933 31.1105 12.2067C30.9168 11.1732 32.1028 11.0743 32.9806 11.1295L32.9456 10.4367C33.1698 10.3355 33.3775 10.271 33.6274 10.3746C33.2725 10.4805 33.3916 10.3286 33.0717 10.5771C33.0017 11.4402 34.19 11.1916 34.8998 11.1824C34.9115 10.7751 34.4842 10.2227 34.2531 10.0754C33.9706 9.89815 33.2631 9.73704 32.8569 9.86823C32.3479 10.0316 32.2499 10.5357 31.9627 10.7336L30.7627 11.263C30.6553 11.141 30.737 11.2308 30.6319 11.0927L30.4825 10.897L30.4802 10.8924Z" fill="#863329"/>
<path fill-rule="evenodd" clip-rule="evenodd" d="M5.38445 21.0202C5.83271 20.5759 6.15257 20.164 6.58449 19.7198C7.59542 18.6817 7.50203 18.8267 7.10513 18.2421C6.93003 17.9843 6.79228 17.692 6.62652 17.4458C6.46075 17.1972 6.29032 16.9463 6.12689 16.6793C5.95412 16.3963 5.78602 16.1776 5.61792 15.9175C5.43815 15.639 5.3004 15.3951 5.1323 15.1465C4.86147 15.2685 4.71439 15.4112 4.44123 15.5769C4.12838 15.7679 4.08402 15.9152 3.91592 16.242C3.45598 17.1328 3.41862 17.0315 4.21709 18.6242C4.49026 19.1697 5.08561 20.6128 5.38445 21.0202Z" fill="#979191"/>
<path fill-rule="evenodd" clip-rule="evenodd" d="M52.4451 13.1134C52.0225 13.0558 51.8964 13.0742 51.7703 12.6761C52.1952 12.775 52.1275 12.7635 52.5478 12.6691L52.4451 13.1134ZM42.254 15.8338L42.212 15.2515L42.5249 15.2999C41.9949 14.5311 41.9132 14.3838 42.1373 13.4494C41.8828 13.5714 42.2027 13.5829 41.7731 13.6588C40.1948 12.4413 41.4392 11.1248 42.3288 11.8406C42.6276 12.0799 42.4665 11.981 42.77 12.0454L43.0782 12.1467C42.7513 12.4942 42.7 12.2411 42.3451 12.4344C42.7443 12.5472 42.7467 12.4827 43.1202 12.462C43.1482 12.6415 43.1622 12.7934 43.2836 12.9522L43.3677 13.0282C43.3747 13.0374 43.3957 13.0535 43.4121 13.0627C42.4875 10.5954 45.2401 11.2445 45.3989 12.6761C45.5763 12.3147 44.7965 11.5299 44.4837 11.3849C43.5148 10.9406 43.7319 11.7071 42.6042 11.1386C42.819 11.6541 43.1039 11.4263 43.1716 11.7117C42.9755 11.9395 42.8657 11.8958 42.5062 11.8222L42.3825 11.0189L44.7195 10.7427C44.8292 10.5747 45.3289 9.83819 45.3522 9.75303L45.1584 10.7772C45.9826 10.7864 46.7227 10.7473 47.5258 10.7795C48.3476 10.8118 48.971 10.9545 49.7181 11.0281L49.7088 10.043C49.8185 10.1627 49.7508 10.0384 49.8745 10.2847L50.1477 11.0235C51.0279 11.0995 51.9898 11.3411 52.7859 11.6749L52.6388 12.5817C52.4591 12.584 52.3166 12.6001 52.1415 12.5633C51.852 12.5034 51.9267 12.5172 51.7843 12.3814C51.859 12.2019 51.5976 12.3814 52.1392 12.1421C52.347 12.05 52.319 12.1007 52.4637 11.9027C51.7516 11.9994 52.0832 12.1973 51.4341 11.8176C50.4769 11.2583 49.1531 12.6622 49.2465 13.0466C49.4263 12.4873 50.1757 11.7508 51.0069 11.8452C52.1322 11.9718 51.5602 13.2561 51.175 13.698L51.273 13.7049L51.7283 13.0719C52.0552 13.2031 52.2536 13.3734 52.4964 13.088L52.8443 12.4022C53.6684 12.3055 54.2288 12.7405 53.8459 13.4747C53.6895 13.8637 53.3906 14.1583 53.0194 14.3378L52.7883 14.4322C52.7696 14.4391 52.7462 14.4506 52.7299 14.4552L52.6132 14.5058C52.7089 15.1088 52.5151 15.263 52.3633 15.7119C52.3797 15.7211 52.41 15.7073 52.4147 15.728C52.4801 15.965 52.347 15.6704 52.5034 15.7602C52.5991 15.8154 52.5198 15.6152 52.5898 15.8499C53.0918 15.3988 52.7766 14.4552 53.6007 14.2434C53.7548 13.8522 54.2591 13.5391 54.1541 12.8671C54.0653 12.3078 53.5354 12.1743 52.9167 12.2111L53.0007 11.7899L53.4887 11.8958C53.54 11.0373 52.9517 9.57811 52.4217 8.88993L52.1229 8.58382C52.2163 8.8508 52.3657 9.00961 52.5058 9.2835C52.877 10.0223 53.0824 10.6299 53.1595 11.4999C52.2186 11.3572 51.4271 10.9476 50.3088 10.8095L49.7905 9.44231L49.585 8.9912L49.5664 9.46763L49.5804 10.7588C48.8776 10.7036 48.2542 10.5494 47.5211 10.5195C46.8067 10.4895 46.0946 10.5379 45.3755 10.5149L45.7841 8.83699C45.7328 8.47564 45.8378 8.60223 45.6067 8.71501C45.5927 8.90374 44.8969 10.0983 44.7685 10.2156C44.6611 10.6299 44.6611 10.5609 44.1919 10.5747C43.4307 10.6 42.3918 10.8141 41.9785 10.7772C41.9225 9.62874 43.391 8.04524 43.4774 7.84961C42.6113 8.30302 41.7264 9.87271 41.5163 11.1754L42.2774 11.0741L42.163 11.5137C41.5093 11.6058 41.068 11.4263 40.8672 12.0546C40.7201 12.5172 40.9466 13.0512 41.1871 13.3481C41.6844 13.9626 41.577 13.5253 41.7544 14.5104C41.8268 14.9109 41.9505 15.5346 42.254 15.8315V15.8338Z" fill="#381704"/>
<path fill-rule="evenodd" clip-rule="evenodd" d="M32.2313 28.0258C33.4103 28.3112 34.3372 27.9613 34.7668 27.9797C35.2827 28.0028 36.4174 28.4147 37.2813 27.8923C37.3279 27.3652 37.0151 27.0637 37.1552 26.7461C36.9427 26.6701 36.6532 26.5528 36.4875 26.4538C35.159 25.6482 34.8882 26.0188 33.2515 25.9912C32.8383 25.9843 32.5301 25.8968 32.4064 26.2075C32.3293 26.4032 32.1822 27.7864 32.2289 28.0258H32.2313Z" fill="#173B89"/>
<path fill-rule="evenodd" clip-rule="evenodd" d="M31.867 6.67104C33.0461 6.64112 32.2289 6.67334 32.9434 6.34191C33.4173 6.12096 34.057 5.84707 34.4656 5.53635C34.4959 5.09905 33.7582 2.93325 33.5807 2.44531C32.7893 2.78825 31.3884 4.03802 31.2437 4.12317C30.6927 4.4477 30.7581 4.4546 31.1993 5.35223C31.4351 5.83326 31.776 6.3281 31.867 6.67104Z" fill="#979191"/>
<path fill-rule="evenodd" clip-rule="evenodd" d="M26.504 14.9095C26.8216 15.0752 26.6651 15.0844 27.006 15.1443C27.4029 14.5597 27.4473 14.4262 28.3508 14.4423C28.0169 13.1051 27.5827 13.761 27.1578 12.8542C27.048 12.5665 26.2706 11.3075 25.9671 11.1211C25.813 11.2937 25.213 11.4042 24.8908 11.5009L23.9709 11.777C23.9452 11.7863 23.8705 11.8116 23.8471 11.8231C23.637 11.9105 23.7748 11.8392 23.665 11.9151C23.9195 12.357 26.4223 14.585 26.5064 14.9118L26.504 14.9095Z" fill="#979191"/>
<path fill-rule="evenodd" clip-rule="evenodd" d="M26.0209 10.8925C26.6256 10.8787 26.4294 10.7153 26.8614 10.5772C26.8917 9.6704 27.0505 8.83492 27.5968 8.39301C27.7089 8.14444 27.9844 7.92119 28.2225 7.77388L28.0357 7.18928C28.0264 7.17317 28.0147 7.15245 28.0077 7.13864L27.5758 6.39062C27.2092 6.47348 24.8745 7.97872 24.5757 8.21579C24.7251 8.69222 25.9251 10.5542 26.0232 10.8948L26.0209 10.8925Z" fill="#979191"/>
<path fill-rule="evenodd" clip-rule="evenodd" d="M19.7382 11.2738C20.3756 11.2945 21.1227 11.1219 21.8861 11.1265C21.6457 10.5926 20.2308 8.80422 19.8363 8.06771L17.1934 7.9043C17.1934 8.21962 17.2611 8.20811 17.4175 8.37612L19.7382 11.2761V11.2738Z" fill="#979191"/>
<path fill-rule="evenodd" clip-rule="evenodd" d="M43.9001 27.8066C44.7733 28.2163 45.999 27.8204 46.4403 27.8135C47.1431 27.8066 48.2217 28.0966 49.1673 27.7329C49.1883 27.3117 49.2139 25.9331 48.8194 25.7858C48.8054 25.7812 46.8956 25.7927 46.3679 26.1793C46.3282 26.2093 46.0621 26.4279 46.0598 26.4302C45.9173 26.5177 45.8636 26.5016 45.6675 26.6028C45.5344 26.6719 45.4224 26.7732 45.308 26.8721L43.9001 27.8066Z" fill="#173B89"/>
<path fill-rule="evenodd" clip-rule="evenodd" d="M45.7794 8.84181L45.3708 10.5197C46.0899 10.5427 46.7997 10.4944 47.5164 10.5243C48.2472 10.5542 48.8729 10.7061 49.5757 10.7636L49.5617 9.47245C49.543 9.44943 49.5313 9.41721 49.5196 9.39189C49.508 9.36888 49.4916 9.34356 49.4799 9.31594C49.4683 9.28832 49.4589 9.26991 49.4473 9.24229C49.4356 9.21697 49.4309 9.19856 49.4216 9.17094L49.2978 8.64157C49.2675 8.70372 49.3142 8.683 49.2231 8.70371L49.1507 8.70602C48.49 8.66459 47.4114 8.57252 46.5966 8.71983L46.4215 8.56332C46.0526 8.49887 46.3888 8.59554 46.0806 8.41602C46.0526 8.47356 46.0339 8.54721 45.9872 8.61625C45.8728 8.78427 45.9265 8.71983 45.7818 8.84181H45.7794Z" fill="#FBB211"/>
<path fill-rule="evenodd" clip-rule="evenodd" d="M29.154 27.105L31.0218 26.2626C31.1409 26.212 31.2412 26.1682 31.3533 26.1084C31.7082 25.9151 31.7736 25.8 31.7852 25.144C31.1268 25.2982 30.849 24.9921 30.7463 24.3661C29.5439 24.2694 30.3494 23.4408 28.8575 24.0646C28.533 24.2004 28.4349 24.2073 28.3555 24.5111C28.0824 25.5652 28.3229 25.632 28.9649 26.8173L29.154 27.1027V27.105Z" fill="#979191"/>
<path fill-rule="evenodd" clip-rule="evenodd" d="M44.1033 28.1753L44.164 29.7058C44.7033 30.0028 45.8169 29.9544 46.2839 29.6299L46.403 28.5758C46.4613 28.6655 46.445 28.6057 46.4823 28.7714L46.5197 29.6437C47.2038 29.8601 47.9415 29.8854 48.6186 29.6644L48.5065 28.2397C46.2349 27.9428 45.8169 28.3134 44.1056 28.1799L44.1033 28.1753Z" fill="#F1C691"/>
<path fill-rule="evenodd" clip-rule="evenodd" d="M39.1769 32.0348C39.4571 32.7275 39.8189 32.4099 39.6182 33.7656C39.6135 33.7955 39.5925 34.0302 39.5808 34.0694L39.5178 34.1913C39.5084 34.2052 39.4594 34.242 39.4407 34.2604C39.7909 34.2512 39.9754 34.1476 40.1645 34.1522C40.3653 34.1545 40.5801 34.2696 40.8836 34.2765C41.4346 34.2903 42.0393 34.2788 42.5926 34.2719C42.2961 33.8507 41.8198 33.5676 42.3077 32.9117C42.4175 32.7667 42.77 32.4905 42.8961 32.3915C43.2113 32.1452 43.2043 32.0117 43.3934 31.6504C42.6743 31.6665 41.7964 31.8161 41.1404 31.9956C40.8299 32.0808 40.4003 32.2879 40.1598 32.2925C39.973 32.2948 39.4851 32.0923 39.1746 32.0371L39.1769 32.0348Z" fill="#4B4745"/>
<path fill-rule="evenodd" clip-rule="evenodd" d="M32.5089 30.7162C33.1953 30.7508 33.2047 30.8359 33.7837 30.9694L33.4942 31.5287C33.3424 31.508 32.6654 31.2778 32.5019 31.2019L32.5089 30.7162ZM33.8631 29.9061L34.3464 29.9084C34.1619 29.8347 34.323 29.8693 34.2179 30.0189C34.5191 30.0534 34.3417 29.9314 34.4818 30.104L34.3557 30.8106C33.6996 30.9464 33.4358 30.4792 32.628 30.5229C32.4132 30.4608 32.5253 30.638 32.4482 30.4262C32.1727 30.9234 32.2708 30.638 32.2871 31.2801C31.5797 31.5932 32.1494 31.5218 31.2482 31.5034C30.7602 31.4919 30.4894 31.722 30.1696 31.9016C29.9011 32.401 29.6746 32.8176 29.8404 33.4459C30.0201 34.1272 30.5011 33.9293 30.8606 34.2768L31.5984 34.2745C30.7929 33.8165 30.1159 34.072 30.0155 33.0616C31.1198 33.5449 31.9463 33.9546 33.2444 33.3309C33.2444 33.2181 33.2724 33.248 33.1557 33.2411C32.2451 33.6416 30.6575 33.4298 30.0295 32.7808C30.0762 32.2468 30.5221 31.7704 31.0824 31.7197C31.8552 31.6507 31.7058 32.0512 32.5977 32.2192L32.4272 32.0926C32.3408 32.0466 32.3385 32.0558 32.2615 32.0258C32.1681 31.9913 32.1027 31.9821 32.028 31.9407C31.8739 31.8532 31.9673 31.9039 31.8669 31.7957C32.4062 31.5955 32.7844 31.8947 33.1557 32.134C33.0833 31.989 33.186 32.0765 32.9946 31.9384C32.6864 31.7151 32.4599 31.798 32.2101 31.5978C32.6794 31.3584 33.4171 31.6553 33.4778 32.1432L33.6156 31.7289C33.807 31.1651 34.0405 31.1075 34.5145 31.0039C34.6102 31.2801 34.7292 31.3653 34.6709 31.8141C34.6242 32.1662 34.6592 31.9775 34.5121 32.1985C34.4047 32.3573 34.3464 32.279 34.4257 32.3895L34.5798 32.233C34.7012 33.1467 33.6646 33.9454 33.0436 34.2354L33.4802 34.2745L33.8701 33.9339C33.8841 33.9224 33.9004 33.9086 33.9144 33.897L34.0475 33.7889C34.0592 33.7774 34.0779 33.7636 34.0895 33.752L34.6826 33.0639C34.9044 33.2043 34.7853 33.1421 34.909 33.3516C35.1051 33.683 35.4227 33.9845 35.6841 34.2837C35.8429 34.2745 35.8499 34.3021 36.011 34.1755C35.6982 34.0121 34.5355 32.8613 34.9137 32.1662C34.8553 31.7358 34.7643 31.3998 35.1051 31.027C35.6188 30.783 35.8382 31.6944 36.1488 31.9292L36.2491 31.8555C36.2585 31.8394 36.2748 31.821 36.2818 31.8118L36.4686 31.5586L36.1464 31.6185C35.955 31.4044 35.9246 31.2939 35.9129 31.0431C36.4219 30.8474 36.646 30.8382 37.2157 30.9004C37.1994 30.8843 37.176 30.8635 37.162 30.852L37.0686 30.7577C36.8935 30.5828 37.1574 30.9096 36.9542 30.6311C36.4639 30.6656 36.2935 30.6679 35.8569 30.8405C35.4437 31.0039 35.5207 30.8313 35.0468 30.7139C34.9697 29.8923 34.79 30.5344 34.7573 29.8693C36.0414 30.0442 35.8686 30.1431 37.1597 29.8347C36.8095 29.5263 36.9892 29.913 36.8935 29.623C36.8842 29.5931 36.8562 29.5977 36.8375 29.5839C36.7278 30.1224 35.3106 29.8508 34.9394 29.7289C34.7246 29.4089 34.7689 28.7691 34.7339 28.3111L35.1588 28.3686C34.895 28.1477 34.5448 28.1431 34.2786 28.3686C34.7829 28.3433 34.7246 28.3755 34.6966 28.9095C34.6802 29.2271 34.7152 29.4619 34.6125 29.7035C34.3557 29.8025 34.0288 29.7657 33.8631 29.9015V29.9061Z" fill="#381704"/>
<path fill-rule="evenodd" clip-rule="evenodd" d="M43.0199 21.7119L43.6129 21.4403C43.5686 20.759 43.3981 21.0375 43.4985 20.0386C43.5242 19.7877 43.69 19.8683 43.4051 19.7486C44.0425 19.6381 44.1499 19.8821 44.311 20.225C44.318 20.2411 44.3273 20.2688 44.3414 20.2895L44.8643 20.2273C45.1165 19.5921 44.841 19.5346 44.5585 19.1594C45.0301 19.2515 44.7079 19.3274 45.1445 19.4149C45.8029 18.828 45.1842 18.5955 44.6822 18.3907C45.0231 18.3861 45.1118 18.4574 45.35 18.4229C45.3453 18.0477 45.2239 18.0615 44.9671 17.8935C45.2309 17.6703 46.3772 16.699 45.2706 16.5586C44.9857 16.8463 44.7896 17.1938 44.3647 17.5253C43.9164 17.8728 43.6199 18.0063 43.3024 18.3746C42.6674 19.1065 42.9359 20.2665 43.0152 21.7096L43.0199 21.7119Z" fill="#F1C691"/>
<path fill-rule="evenodd" clip-rule="evenodd" d="M22.9648 15.2983L25.5377 17.5769C25.8295 17.5125 26.0653 17.356 26.3642 17.2133L27.1486 16.7944C26.9805 16.4883 27.0272 16.6195 26.7634 16.3801L25.9183 15.6321C25.7525 15.471 25.6544 15.3582 25.47 15.2109C24.6645 14.5641 24.4801 14.8035 23.3127 15.1671L22.9648 15.2983Z" fill="#979191"/>
<path fill-rule="evenodd" clip-rule="evenodd" d="M42.1304 22.7272L42.7561 22.2898C42.644 22.4602 42.581 22.4763 42.5039 22.6673C43.1413 22.1748 42.8915 22.4832 43.4612 22.2369L46.8815 20.6258C47.8247 20.1217 50.8599 18.8766 51.4225 18.4462C51.1844 18.2897 51.3525 18.4508 51.1774 18.1953L46.4356 20.1747C45.2005 20.6787 42.5413 21.8203 42.1327 22.7248L42.1304 22.7272Z" fill="#D8D7D8"/>
<path fill-rule="evenodd" clip-rule="evenodd" d="M40.1878 11.4702C40.0921 11.5047 38.8687 11.7211 38.6282 11.7625C38.5745 11.293 38.6843 11.1917 39.1279 11.1388C39.4641 11.0997 39.9147 11.0237 40.1855 11.1112L40.1902 11.4702H40.1878ZM38.5769 10.7245C38.5162 11.3505 38.4321 11.2193 37.7551 11.2009C37.3231 11.1894 36.8865 11.1871 36.4756 11.1756C36.5877 10.5012 36.6251 10.6094 37.2648 10.6301C37.7481 10.6462 38.1379 10.6647 38.5745 10.7268L38.5769 10.7245ZM38.9691 9.73942C38.9434 10.0455 38.8103 10.2135 38.717 10.4299C38.4251 10.4943 37.0733 10.4529 36.7675 10.3632L36.8889 9.49775C36.8375 7.61275 36.4313 7.55751 36.45 7.08108C36.8795 7.08568 37.678 7.30203 37.9909 7.51608C38.1706 7.64037 37.9885 7.5391 38.1753 7.65648C38.3901 7.79227 38.2757 7.70021 38.4415 7.78077C38.7707 7.94418 38.3411 7.61735 38.6493 8.02934C38.7637 8.18354 38.8594 8.24339 38.9458 8.44823C39.1559 8.94998 39.1909 9.46553 38.9714 9.73712L38.9691 9.73942ZM36.1371 6.9637C36.3893 8.03854 36.9542 8.65767 36.5363 10.0824C36.6647 10.3816 36.471 10.637 36.3145 10.7982L36.2328 11.0605L36.2141 11.2677C36.2889 11.2769 36.3309 11.27 36.3799 11.293C36.5363 11.3643 36.4523 11.3183 36.5503 11.4035L38.2127 11.4748C38.3784 11.5139 38.2664 11.4909 38.3341 11.5646L38.5629 11.8155C38.759 11.9374 38.857 11.8891 38.9504 11.9006C39.2096 11.9351 39.2026 11.9305 39.4851 12.0663L39.9193 12.308C39.9427 12.2965 39.973 12.2528 39.987 12.2712C40.001 12.2896 40.0361 12.2436 40.0547 12.2343L40.2532 12.1124L40.524 11.1641C40.3209 11.0882 40.3909 11.3459 40.3232 10.858L38.9201 10.9247C39.0999 10.0133 39.8656 9.19394 39.0205 7.92346C38.5979 7.28592 37.3535 6.93838 36.3332 6.75195C36.2772 7.15243 36.4803 6.95449 36.1348 6.9683L36.1371 6.9637Z" fill="#0F132E"/>
<path fill-rule="evenodd" clip-rule="evenodd" d="M31.2903 19.3136C31.4724 19.4586 31.9837 19.668 32.2592 19.6749L31.1572 19.5507L40.0875 22.5772C40.3887 22.6095 40.2929 22.5289 40.5848 22.7637C40.8066 22.7222 40.6011 22.8373 40.7039 22.6831L40.7272 22.6164C40.9397 22.7867 40.8603 22.7844 41.1475 22.8603C40.6688 21.8062 35.4414 20.5035 33.9005 20.0133C33.4709 19.8752 33.0413 19.7578 32.6071 19.6266L31.6522 19.2929C31.4584 19.2376 31.3907 19.263 31.2903 19.3136Z" fill="#D8D7D8"/>
<path fill-rule="evenodd" clip-rule="evenodd" d="M30.1485 11.5261C29.8007 13.3651 28.6893 12.5826 28.6403 12.5089C28.4022 12.1453 28.5749 11.7724 28.8971 11.5837C29.2753 11.3627 29.7329 11.4778 30.1485 11.5261ZM27.3399 12.4307V12.9209L27.1554 12.8518C27.5827 13.7587 28.0146 13.1027 28.3485 14.4399C27.4449 14.4238 27.4006 14.5596 27.0037 15.1419C26.6628 15.0821 26.8192 15.0729 26.5017 14.9072C26.5484 15.135 26.5087 15.0407 26.5834 15.1857L27.1064 15.2823C27.1928 15.5516 27.1438 15.593 27.3422 15.8439C27.3515 15.8577 27.3726 15.8807 27.3912 15.8946C27.1064 14.8772 27.2722 14.5711 28.4278 14.6034C28.5399 14.7392 28.7921 15.1166 28.8925 15.1972C28.8644 15.0153 28.6893 14.7276 28.6006 14.509C28.4932 14.2443 28.3765 13.9911 28.3088 13.7265L29.28 13.7564C29.1563 13.9497 29.0816 14.4146 29.1609 14.6517C29.3057 15.0844 29.1726 14.7806 29.3431 14.8726C29.245 14.3778 29.2287 13.9428 29.6466 13.7403C30.1439 13.5009 30.6365 13.807 30.996 13.9313C31.0217 13.8438 31.0918 13.9727 30.9377 13.8599L30.3353 13.4664C31.3042 13.3283 31.3906 13.8162 32.9782 13.3674C33.6529 13.1764 34.7316 12.5066 34.2063 11.9703L34.0965 11.9887C34.5471 13.1879 31.1688 13.8369 30.445 12.7759C29.9571 12.0601 30.466 11.6412 30.5548 11.3351C29.9337 11.4709 29.7353 11.128 29.0209 11.3029C28.6053 11.4064 28.2808 11.5975 28.2014 12.0325C28.1243 12.4491 28.2948 12.8288 28.715 12.9853C29.1143 13.1349 29.6489 12.8818 29.9571 12.7667L30.3446 13.1672C30.0178 13.494 28.8668 13.5055 28.4652 13.4295C27.3212 13.2178 27.5617 12.6493 27.3375 12.4238L27.3399 12.4307Z" fill="#381704"/>
<path fill-rule="evenodd" clip-rule="evenodd" d="M40.5404 13.0955C40.5404 13.0955 40.2742 12.6444 40.2929 13.7239C40.2999 14.1888 40.1925 14.3154 40.2298 14.8263C40.3069 15.9196 40.1878 16.2004 41.054 16.2441C41.0493 16.2418 41.103 15.9357 40.8906 16.3776C41.1077 16.6699 41.7941 17.1164 42.3357 16.8748C42.3474 16.5733 41.7381 15.5076 41.6797 15.289C41.5536 14.8171 41.5489 14.1681 41.4252 13.9655C41.096 13.4224 40.6337 13.6755 40.6641 12.4258L40.538 13.0955H40.5404Z" fill="#FBB211"/>
<path fill-rule="evenodd" clip-rule="evenodd" d="M42.4758 33.0229C44.2269 32.9723 43.8977 33.497 44.6051 33.6236C45.1467 33.7203 46.0456 32.9424 46.223 32.5327C46.2277 32.5488 46.2441 32.5534 46.2441 32.5764C46.2441 32.6017 46.2557 32.6201 46.2557 32.6293C46.2557 32.6432 46.2417 32.7421 46.2394 32.7674C46.5359 32.4659 46.3538 31.543 46.2184 31.1816L45.2518 31.4578C45.1584 31.8146 45.5016 32.0424 44.7452 32.5373C44.3669 32.459 43.9023 31.9159 43.4331 32.1184C43.2393 32.2012 42.5856 32.7789 42.4758 33.0252V33.0229Z" fill="#F09BA4"/>
<path fill-rule="evenodd" clip-rule="evenodd" d="M44.7662 10.2208C44.8923 10.1011 45.5904 8.90655 45.6044 8.72012C45.462 8.56591 45.6207 8.66718 45.497 8.77766C45.2799 8.9733 45.6628 8.77076 45.3102 8.94337C45.2962 8.92957 45.2752 8.90885 45.2659 8.89964L45.1351 8.77766C44.9577 8.64187 44.9063 8.66949 44.6892 8.59583C43.8884 8.32194 44.6822 8.58202 43.6456 8.63956C43.4658 8.94337 43.6806 8.81909 43.3818 9.00782C43.3677 8.98941 43.3584 8.96179 43.3514 8.94568L43.2253 8.48996L42.665 9.44973C42.5062 9.79266 42.3031 10.1356 42.3008 10.5131C42.5576 10.5637 43.244 10.4302 43.6222 10.4233C44.2946 10.4118 44.2339 10.5085 44.6355 10.2875L44.7686 10.2185L44.7662 10.2208Z" fill="#FBB211"/>
<path fill-rule="evenodd" clip-rule="evenodd" d="M30.8585 34.2717C30.4989 33.9242 30.018 34.1221 29.8382 33.4409C29.6724 32.8148 29.8989 32.3982 30.1674 31.8965C29.586 31.9655 28.972 32.1451 28.4724 32.3338C27.2677 32.7895 27.0529 33.6917 28.7385 34.1981C29.1891 34.3316 30.3261 34.2694 30.8561 34.2694L30.8585 34.2717Z" fill="#4B4745"/>
<path fill-rule="evenodd" clip-rule="evenodd" d="M46.767 32.6937C46.669 32.3278 46.7157 32.6247 46.8651 32.5027C47.0332 32.887 48.0254 33.5867 48.4667 33.4394C48.6278 33.3865 49.0597 33.0643 49.2722 32.9653C49.7321 32.7535 50.1173 32.8732 50.4909 32.772C50.3088 32.3715 49.9422 32.3531 49.7344 32.0032C49.048 31.6764 48.7048 32.3024 48.1982 32.3715C48.0885 32.3047 47.9997 32.2012 47.8737 32.0723C47.6379 31.8306 47.7056 32.0331 47.7336 31.6212C47.7709 31.0826 47.5608 31.3933 47.1242 31.1056L46.676 31.0918C46.6083 31.5406 46.4588 32.3807 46.7647 32.6891L46.767 32.6937Z" fill="#F09BA4"/>
<path fill-rule="evenodd" clip-rule="evenodd" d="M27.1578 9.88378C27.1134 10.5006 27.0784 11.1543 27.3866 11.6008C27.6201 11.5248 28.045 11.0484 28.5143 10.885C29.0279 10.7101 29.7283 10.763 30.3003 10.7308C30.2419 10.6272 30.2279 10.6042 30.1672 10.4707L30.0482 10.2405C30.0412 10.2198 30.0365 10.1991 30.0318 10.1784L29.8591 9.36132C29.5415 9.6237 29.2871 9.37283 28.7617 9.40505C28.4746 9.42346 28.4279 9.50632 28.1057 9.4787C27.6107 9.43497 27.8979 9.3337 27.6854 9.29688C27.6854 9.29688 27.6201 9.35902 27.6061 9.37283C27.3025 9.73878 27.5594 9.73418 27.1555 9.88148L27.1578 9.88378Z" fill="#173B89"/>
<path fill-rule="evenodd" clip-rule="evenodd" d="M36.4127 32.6866C36.3263 32.8708 36.2702 33.0296 36.2375 33.2897C36.429 33.6809 37.3512 33.7062 37.8345 33.6993C38.647 33.6855 38.9178 33.4945 39.5295 33.2759C39.4758 32.5716 38.9622 31.9801 38.2337 31.9985C37.5987 32.0146 38.1824 32.1066 37.2858 32.3046C36.7979 32.4128 36.7138 32.659 36.4127 32.6866Z" fill="#979191"/>
<path fill-rule="evenodd" clip-rule="evenodd" d="M28.4607 7.99144C28.8832 7.85795 29.579 7.27105 30.263 7.28946C30.1767 7.89478 29.9245 8.29065 29.9035 8.92129C29.8825 9.49438 30.0319 9.98232 30.1697 10.4703C30.2327 10.6061 30.2467 10.6268 30.3027 10.7303C29.7284 10.7626 29.0303 10.7096 28.5167 10.8845C28.0451 11.0457 27.6202 11.5244 27.389 11.6003C27.0808 11.1538 27.1159 10.4979 27.1602 9.88335C27.1555 9.33097 27.2886 9.34938 27.5338 8.98803C27.5431 8.97422 27.5548 8.95351 27.5641 8.9397L27.6505 8.7901C27.7556 8.62668 27.6972 8.71414 27.7883 8.60597L28.0801 8.21009C27.6202 8.18478 27.8256 8.31367 27.6225 8.59446L27.5968 8.38732C27.0505 8.82922 26.8917 9.6647 26.8614 10.5715C26.4318 10.7119 26.6256 10.873 26.0209 10.8868C25.9789 11.0226 25.9975 10.9881 25.9648 11.1147C26.2684 11.2988 27.0458 12.5601 27.1555 12.8478L27.34 12.9169V12.4266C27.396 12.1274 27.5034 11.7845 27.7019 11.5888C27.8256 11.4692 28.2062 11.2068 28.4326 11.117C29.1634 10.827 29.5696 10.8938 30.4825 10.8891L30.4592 10.4472C30.3144 9.8051 30.0949 9.63018 30.1556 8.75787C30.2047 8.072 30.4428 7.69454 30.5222 7.07771C30.0389 6.98795 29.2568 7.37462 28.8739 7.61628C28.8669 7.62089 28.6941 7.73367 28.6801 7.74287L28.4607 7.98684V7.99144Z" fill="#0F132E"/>
<path fill-rule="evenodd" clip-rule="evenodd" d="M28.4606 7.99319C28.3439 7.91723 28.1711 8.06684 28.0777 8.21184L27.7859 8.60771C27.6925 8.71359 27.7508 8.62843 27.6481 8.79184L27.5617 8.94144C27.5524 8.95525 27.5407 8.97597 27.5314 8.98978C27.2862 9.35113 27.1532 9.33271 27.1578 9.8851C27.5617 9.73779 27.3049 9.7447 27.6084 9.37644C27.6201 9.36033 27.6855 9.30049 27.6878 9.30049C27.9003 9.33732 27.6108 9.43629 28.1081 9.48232C28.4303 9.51224 28.4769 9.42708 28.7641 9.40867C29.2894 9.37644 29.5439 9.62732 29.8614 9.36494L30.0342 10.182C30.0389 10.2027 30.0435 10.2234 30.0505 10.2441L30.1696 10.4743C30.0319 9.98406 29.8848 9.49843 29.9035 8.92533C29.9245 8.297 30.1766 7.89882 30.263 7.2935C29.5789 7.27279 28.8809 7.862 28.4606 7.99549V7.99319Z" fill="#27176A"/>
<path fill-rule="evenodd" clip-rule="evenodd" d="M53.5939 14.2451C52.7698 14.4568 53.0849 15.4005 52.583 15.8516C52.5596 16.0518 52.5013 16.1439 52.3962 16.3395L52.2608 16.6572C52.2211 17.1934 53.692 16.7676 53.9091 16.4776C53.9488 15.9851 54.0679 16.1232 54.306 15.847C54.5628 15.5501 54.4041 13.9689 54.3924 13.5293C54.0468 13.596 54.3247 13.7272 53.9885 14.2681L53.5986 14.2451H53.5939Z" fill="#FBB211"/>
<path fill-rule="evenodd" clip-rule="evenodd" d="M36.8913 9.49675L36.994 9.26659L37.1131 9.53588C37.2719 9.32643 37.0407 9.36556 37.3046 9.2758C37.4423 9.22977 38.068 9.29421 38.2968 9.21596L38.4065 9.16072C38.7287 8.97199 38.4019 8.95588 38.8011 8.95818C38.8875 9.15842 38.9155 9.5612 38.9739 9.73612C39.1933 9.46223 39.1583 8.94897 38.9482 8.44723C38.8618 8.24238 38.7684 8.18024 38.6517 8.02834C38.3435 7.61635 38.7731 7.94318 38.4439 7.77976C38.2781 7.69921 38.3925 7.78897 38.1777 7.65548C37.9933 7.5381 38.1754 7.63937 37.9933 7.51508C37.6804 7.30103 36.882 7.08238 36.4524 7.08008C36.436 7.55651 36.84 7.61175 36.8913 9.49675Z" fill="#27176A"/>
<path fill-rule="evenodd" clip-rule="evenodd" d="M33.1535 33.236C33.2796 32.5317 33.0531 32.7181 32.6726 32.313L32.5955 32.2164C31.7037 32.0483 31.8531 31.6479 31.0803 31.7169C30.52 31.7675 30.074 32.2417 30.0273 32.7779C30.6554 33.427 32.243 33.6387 33.1535 33.2383V33.236Z" fill="#979191"/>
<path fill-rule="evenodd" clip-rule="evenodd" d="M30.5199 7.08344C30.4382 7.70027 30.2024 8.07773 30.1533 8.76361C30.0903 9.63591 30.3121 9.81313 30.4569 10.453L30.744 10.9225C31.0475 10.9294 31.1526 10.8396 31.3767 10.7637C31.4655 10.7039 31.4795 10.6992 31.5518 10.6647L31.8087 10.5542C31.3044 10.2504 31.4118 10.6279 30.9121 10.6693C30.7487 10.3218 30.667 10.3816 30.7861 9.94893L30.4405 9.79242C30.3565 8.7567 30.5339 8.3217 30.8117 7.43789L30.8584 7.3113C30.9121 7.19392 30.9191 7.20313 30.9658 7.14789C31.4351 7.0236 34.6827 6.94074 35.3481 7.00059C36.2353 7.07884 35.9855 7.61511 36.3147 8.28718C36.5551 8.77742 36.5108 9.82694 36.2399 10.1883C35.8711 10.3034 35.4345 10.2781 35.0516 10.2159C34.5193 10.1308 35.1216 9.81313 34.2951 9.83615L34.4142 9.99036C34.5846 10.186 34.7574 10.3839 35.0259 10.4254C35.2757 10.4622 36.1115 10.43 36.3917 10.4092L36.5435 10.0893C36.959 8.66694 36.3964 8.04551 36.1442 6.97066C35.5699 6.63233 34.057 6.79114 33.2585 6.79114C32.7776 6.79344 30.765 6.80955 30.5269 7.08805L30.5199 7.08344Z" fill="#D8AC30"/>
<path fill-rule="evenodd" clip-rule="evenodd" d="M46.7672 32.6937C46.9236 33.4372 47.9509 34.1345 48.8427 34.2036C49.8677 34.2818 51.1984 33.6213 50.491 32.7743C50.1175 32.8756 49.7299 32.7536 49.2723 32.9676C49.0622 33.0666 48.6279 33.3888 48.4668 33.4418C48.0256 33.5891 47.0333 32.8894 46.8652 32.505C46.7158 32.6247 46.6691 32.3278 46.7672 32.696V32.6937Z" fill="#979191"/>
<path fill-rule="evenodd" clip-rule="evenodd" d="M49.2418 13.0495C49.2442 13.2958 49.2932 13.1922 49.1648 13.3487L49.2278 14.0323C49.438 13.6548 49.3889 12.969 50.4769 13.0035C50.4279 13.8942 50.9555 13.7446 50.1477 14.2486C50.589 14.2348 50.9368 13.8896 51.168 13.7009C51.5555 13.2567 52.1252 11.9747 50.9999 11.8481C50.1687 11.7537 49.4193 12.4902 49.2395 13.0495H49.2418Z" fill="#979191"/>
<path fill-rule="evenodd" clip-rule="evenodd" d="M50.1688 9.80459C50.3509 10.5135 50.4956 10.6999 51.3361 10.7436L52.3004 10.7851C52.8163 10.716 52.1206 11.0106 52.4521 10.7298C52.7183 10.525 52.6763 10.5756 52.6015 10.1544C52.5572 9.90125 52.5222 9.70562 52.2957 9.56292C52.1463 9.45705 52.0295 9.26141 52.0155 9.2522L51.8708 9.22228C51.712 9.2499 51.9011 9.20847 51.747 9.27292L51.5323 9.33046C51.5206 9.32816 51.4949 9.32125 51.4832 9.31895C51.4716 9.31665 51.4459 9.30514 51.4342 9.30284C51.0396 9.2453 51.2031 9.60204 51.1237 9.42482C51.1167 9.41101 51.098 9.46165 51.084 9.47546C51.042 9.33736 51.0863 9.34427 50.8949 9.20617C50.8855 9.19927 50.8645 9.18776 50.8575 9.18546L50.7735 9.15784C50.7665 9.15554 50.5774 9.17395 50.3999 9.03125C50.3345 9.3926 50.1104 9.36268 50.1688 9.80228V9.80459Z" fill="#FBB211"/>
<path fill-rule="evenodd" clip-rule="evenodd" d="M31.3767 10.7617C31.1525 10.8377 31.0475 10.9274 30.744 10.9205L30.4568 10.451L30.4801 10.8929L30.6296 11.0885C30.7346 11.2266 30.6529 11.1392 30.7603 11.2589L31.9603 10.7295C32.2475 10.5316 32.3432 10.0275 32.8545 9.86409C33.2608 9.7329 33.9682 9.89401 34.2507 10.0712C34.4818 10.2162 34.9091 10.7709 34.8974 11.1783C34.1877 11.1875 32.9993 11.4384 33.0693 10.573C33.3892 10.3221 33.2701 10.4763 33.625 10.3704C33.3752 10.2669 33.1651 10.3313 32.9433 10.4326L32.9783 11.1254C32.1004 11.0678 30.9144 11.1691 31.1082 12.2025C31.1805 12.5892 31.5284 12.7848 31.965 12.8009C32.5557 12.8239 32.6794 12.5201 32.9759 12.3245C32.579 12.3061 32.1821 12.8308 31.5214 12.4626C31.1409 12.0874 31.3066 10.8331 33.165 11.3785C33.8678 11.5857 33.4569 11.4407 34.1246 11.3463L36.5504 11.3993C36.4523 11.3141 36.5364 11.3601 36.3799 11.2888C36.3309 11.2658 36.2889 11.2727 36.2142 11.2635L36.2329 11.0563C35.934 11.176 35.5651 11.1645 35.1659 11.1185L34.9581 10.5661C35.2873 10.5085 35.4227 10.5546 35.7472 10.5684C36.1862 10.5868 36.3169 10.4671 36.3169 10.7939C36.4733 10.6305 36.6671 10.3773 36.5387 10.0781L36.387 10.3981C36.1068 10.4211 35.271 10.4533 35.0211 10.4142C34.7527 10.3727 34.5799 10.1748 34.4095 9.97917L34.2904 9.82496C33.6203 9.76052 33.4242 9.39457 32.5977 9.85028C31.923 10.2208 32.1028 10.5431 31.3767 10.7571V10.7617Z" fill="#381704"/>
<path fill-rule="evenodd" clip-rule="evenodd" d="M26.9128 21.3712C26.9245 21.751 27.2724 22.7383 27.4662 23.0099C27.8047 22.9202 27.6109 22.9777 27.786 22.7752C27.7977 22.7637 27.8094 22.7429 27.821 22.7314L28.7106 21.8706C29.2429 21.2814 29.8009 20.9109 29.7589 20.6071C29.2079 20.5495 27.5245 21.2078 26.9128 21.3689V21.3712Z" fill="#979191"/>
<path fill-rule="evenodd" clip-rule="evenodd" d="M31.4724 15.8311C30.765 15.9347 30.5852 15.6079 30.249 15.3317C30.3798 14.9841 30.2513 15.2557 30.5128 15.0025C30.4428 14.6596 30.1906 14.6297 30.5292 14.5353C30.7767 14.4663 31.0452 14.5813 31.2086 14.7056C31.5985 15.0071 31.7526 15.3938 31.4724 15.8311ZM29.3455 14.8736C29.5346 15.0578 29.6397 15.4191 30.0832 15.7252C30.3938 15.9416 30.9307 16.151 31.3347 16.0083C32.1495 15.7229 31.8506 14.846 31.2413 14.2039C31.0872 14.0428 31.1269 14.1187 31.0008 13.9323C30.6412 13.808 30.1486 13.5019 29.6513 13.7413C29.2334 13.9415 29.2521 14.3765 29.3478 14.8736H29.3455Z" fill="#979191"/>
<path fill-rule="evenodd" clip-rule="evenodd" d="M43.4097 13.0641C43.7366 13.2115 43.5451 13.1907 43.809 13.4554C44.0191 13.6649 44.1125 13.5958 44.2339 13.9365L44.4277 13.9249C43.8837 13.5613 44.0658 13.3611 44.2199 13.1401L44.3506 12.8662C44.3576 12.8432 44.3646 12.8202 44.3716 12.7995L44.423 12.6637C44.9833 12.712 45.2822 13.0711 45.3009 13.6027C45.539 13.5084 45.3872 12.8984 45.3942 12.6775C45.2355 11.2436 42.4829 10.5968 43.4074 13.0641H43.4097Z" fill="#979191"/>
<path fill-rule="evenodd" clip-rule="evenodd" d="M36.8375 29.5876L36.8795 28.3585L35.1588 28.37L34.7339 28.3125C34.7689 28.7705 34.7245 29.4104 34.9393 29.7303C35.3082 29.8523 36.7254 30.1239 36.8375 29.5853V29.5876Z" fill="#BD6B43"/>
<path fill-rule="evenodd" clip-rule="evenodd" d="M35.8104 14.7507C35.4228 14.1224 35.6096 13.3491 36.4664 13.2455C36.5108 13.3214 36.4781 13.2938 36.5201 13.4273C36.5598 13.5585 36.4921 13.4618 36.5785 13.6091C36.6719 13.7726 36.5435 13.6184 36.6953 13.7311C36.6976 13.7334 36.8423 13.7979 36.8447 13.8002C36.84 14.3503 36.5108 14.7761 35.8104 14.7484V14.7507ZM36.4968 12.3249C35.9225 12.5205 35.5326 12.9808 35.3878 13.6759C35.2267 14.4469 35.6796 15.142 36.4735 14.8244C37.7435 14.3134 38.0074 11.8116 36.4991 12.3249H36.4968Z" fill="#979191"/>
<path fill-rule="evenodd" clip-rule="evenodd" d="M26.5533 26.7546C26.586 26.529 26.4692 26.124 26.4576 25.7649C26.4366 25.0629 25.9486 24.9363 25.4606 24.5059C25.1525 24.2343 25.1688 24.0917 24.7322 24.041C24.1439 25.0905 24.6832 25.1757 25.7805 26.315C26.0467 26.5935 26.1074 26.7914 26.5533 26.7523V26.7546Z" fill="#979191"/>
<path fill-rule="evenodd" clip-rule="evenodd" d="M33.863 29.903C34.0288 29.7649 34.3557 29.8041 34.6125 29.7051C34.7152 29.4657 34.6802 29.231 34.6965 28.911C34.7246 28.3748 34.7829 28.3426 34.2786 28.3702L32.8428 28.4599L32.6934 29.7419L33.8607 29.903H33.863Z" fill="#BD6B43"/>
<path fill-rule="evenodd" clip-rule="evenodd" d="M47.9858 16.1393C48.0441 17.2786 46.7974 16.8896 46.655 16.648C46.2767 16.0104 47.2036 15.7987 47.9858 16.1393ZM45.4433 15.0576C45.4643 15.0391 45.5016 14.9747 45.5156 14.9609L45.7258 14.8343C45.3125 14.8228 45.2308 14.8113 45.051 15.1404C45.0627 15.1473 45.086 15.1519 45.0907 15.1519C45.0977 15.1519 45.1234 15.1588 45.1327 15.1588L45.3826 15.0553C45.5436 15.4396 45.6394 15.2325 45.8402 15.5593C45.9826 15.7918 46.2231 16.9978 47.2433 17.03C47.7663 17.0461 48.2472 16.6572 48.4737 16.3465C48.6652 16.0841 48.6301 15.9552 48.7842 15.7158C48.9547 15.4511 49.0434 15.5432 49.2372 15.2831C49.6271 15.3453 49.3422 15.3015 49.6434 15.4649C49.599 15.1059 49.459 15.0253 49.006 15.0507C48.8146 15.5823 49.1321 14.8965 49.1088 15.2394C47.255 16.2406 46.0316 15.2417 45.4456 15.0576H45.4433Z" fill="#381704"/>
<path fill-rule="evenodd" clip-rule="evenodd" d="M43.6853 20.2921L43.8347 21.0332L48.2707 19.1275L47.7174 18.9457C47.0846 19.3484 47.3298 19.5579 46.4333 18.9434C45.9453 19.1689 45.3126 19.185 45.1352 19.8548C44.918 20.6811 44.4651 20.5591 43.6853 20.2944V20.2921Z" fill="#979191"/>
<path fill-rule="evenodd" clip-rule="evenodd" d="M36.8912 9.4974L36.7698 10.3628C37.078 10.4526 38.4274 10.494 38.7193 10.4295C38.8126 10.2132 38.9481 10.0452 38.9714 9.73906C38.913 9.56414 38.885 9.15906 38.7986 8.96113C38.3994 8.95882 38.7263 8.97493 38.4041 9.16367L38.2943 9.2189C38.0679 9.29486 37.4422 9.23041 37.3021 9.27874C37.0383 9.36851 37.2671 9.32708 37.1106 9.53883L36.9916 9.26954L36.8888 9.4997L36.8912 9.4974Z" fill="#173B89"/>
<path fill-rule="evenodd" clip-rule="evenodd" d="M34.9113 32.1667C35.0538 32.4613 35.1518 32.5902 35.3899 32.8089C35.509 32.9171 35.5697 32.9654 35.6888 33.069L36.0764 33.3705C36.1371 33.2531 35.9876 33.2692 36.2398 33.2899C36.2725 33.0298 36.3285 32.871 36.4149 32.6869C36.3098 32.5189 36.2701 32.535 36.2888 32.3048L36.0997 32.2473L36.1487 31.9297C35.8382 31.6949 35.6187 30.7835 35.1051 31.0274C34.7642 31.4003 34.8576 31.7363 34.9137 32.1667H34.9113Z" fill="#B1312F"/>
<path fill-rule="evenodd" clip-rule="evenodd" d="M33.4756 32.1409C33.4733 32.1432 33.3309 32.1731 33.3309 32.1731C33.2795 32.1731 33.2702 32.2813 33.2142 32.1524C33.2048 32.1294 33.1721 32.1386 33.1511 32.1317L33.1091 32.4102C32.948 32.4286 32.8383 32.2997 32.5955 32.2191L32.6725 32.3158C33.0531 32.7232 33.2772 32.5368 33.1535 33.2388C33.2702 33.2434 33.2422 33.2134 33.2422 33.3285C33.478 33.2111 33.6811 33.0523 33.8725 32.9142C34.1224 32.7347 34.2881 32.6242 34.4259 32.3895C34.3488 32.279 34.4072 32.3572 34.5123 32.1984C34.6593 31.9798 34.6267 32.1662 34.671 31.8141C34.7294 31.3653 34.6103 31.2801 34.5146 31.0039C34.0383 31.1098 33.8072 31.165 33.6157 31.7289L33.478 32.1432L33.4756 32.1409Z" fill="#B1312F"/>
<path fill-rule="evenodd" clip-rule="evenodd" d="M48.2052 32.3036L48.1259 31.9652C48.5181 31.7305 49.0154 31.452 49.6084 31.6959C49.424 31.8064 49.0971 31.8363 48.866 31.9238C48.5578 32.0389 48.4317 32.1839 48.2052 32.3036ZM47.8854 31.9652C47.6683 31.3438 48.8636 31.0676 49.2955 31.4105C49.0691 31.5141 48.8379 31.5026 48.5461 31.62C48.2239 31.7512 48.1119 31.8547 47.883 31.9652H47.8854ZM49.0457 30.4784C49.1415 30.8927 49.0457 30.9617 48.6862 31.0147C48.3687 31.0607 48.1842 31.1366 47.9157 31.1551L47.7593 30.6027C48.0698 30.4577 48.6278 30.3886 49.0434 30.4784H49.0457ZM48.5788 30.1355C48.2846 30.1976 47.9858 30.216 47.7033 30.3196C47.2924 30.4715 47.3391 30.4968 47.4698 30.8904L47.1243 30.8789C47.2784 31.0055 46.9562 30.8996 47.3414 31.04L47.1313 31.1067C47.5679 31.3921 47.778 31.0837 47.7406 31.6223C47.7126 32.0343 47.6449 31.8317 47.8807 32.0734C48.0068 32.2 48.0955 32.3059 48.2052 32.3726C48.7095 32.3036 49.0551 31.6775 49.7415 32.0043L49.7905 31.9077C49.6644 31.4543 49.5033 31.567 49.3469 31.1896C49.2348 30.9226 49.3656 30.6533 49.3796 30.3495C49.1345 30.1792 49.1321 30.292 49.0387 30.0664L48.8146 30.2321C48.7983 30.239 48.7772 30.2505 48.7586 30.2551C48.7025 30.2758 48.5531 30.2897 48.441 30.2989C48.6372 30.2091 48.4737 30.2943 48.5811 30.1332L48.5788 30.1355Z" fill="#4F132A"/>
<path fill-rule="evenodd" clip-rule="evenodd" d="M33.3869 17.9236L33.6554 17.919C33.7558 17.3574 33.7885 17.3781 34.134 17.2723L34.2601 17.2377C34.5239 17.1572 34.7037 17.0306 34.9371 17.1986C35.1052 17.3183 35.0025 17.27 35.0889 17.4426C35.3177 17.8937 34.9185 17.1779 35.1356 17.5416C35.3084 17.8293 35.0165 17.56 35.2266 17.6474C35.5745 17.2055 35.5395 17.1664 35.6329 16.5703C35.7286 15.9558 36.2913 15.9396 36.3496 15.9097L35.9037 15.7946C35.745 16.0432 36.0695 15.5116 35.8337 15.9373C35.8267 15.9512 35.815 15.9719 35.808 15.9857C35.6352 16.2734 35.4788 16.3424 35.1893 16.492C34.5309 16.8373 33.8422 17.0214 33.067 16.9823C31.9674 16.927 32.2849 16.6485 32.2732 16.5611L31.9697 16.7912L32.2079 16.8672C32.362 16.9155 32.3106 16.8879 32.4507 16.9454C32.7565 17.0697 33.2445 17.7004 33.3869 17.9213V17.9236Z" fill="#381704"/>
<path fill-rule="evenodd" clip-rule="evenodd" d="M32.0912 25.6614C32.5768 25.742 34.3395 25.7972 34.6991 25.6039C34.3279 25.3967 33.8026 25.1919 33.3987 24.9985C33.2516 24.9272 32.857 24.7661 32.7543 24.6832C32.4181 24.4139 32.7286 24.2436 32.1402 24.3058C32.1309 24.8167 31.9558 25.3415 32.0912 25.6614Z" fill="#979191"/>
<path fill-rule="evenodd" clip-rule="evenodd" d="M1.19126 11.0498C1.48076 10.8956 2.30025 10.1982 2.46134 9.945C2.36095 9.73786 1.73758 9.26833 1.49477 9.16016C0.558551 9.89667 0.493179 9.76778 1.18892 11.0498H1.19126Z" fill="#979191"/>
<path fill-rule="evenodd" clip-rule="evenodd" d="M45.3967 34.2739L47.8949 34.2693C47.6684 34.0599 47.3345 33.8481 47.0964 33.618C46.8536 33.3832 46.7509 33.0196 46.5151 32.7871C46.3049 33.1001 46.1952 33.3671 46.0154 33.6249C45.817 33.908 45.6372 33.9977 45.3967 34.2739Z" fill="#4B4745"/>
<path fill-rule="evenodd" clip-rule="evenodd" d="M49.1648 13.3484C49.0574 12.8536 48.9476 13.9146 49.3656 14.2369C49.8582 14.6189 50.5446 14.3197 50.9905 14.0159C51.2427 13.8456 51.1423 13.9584 51.2684 13.7075L51.1703 13.7006C50.9392 13.8893 50.5913 14.2323 50.15 14.2484C50.9578 13.7466 50.4279 13.8939 50.4792 13.0032C49.3889 12.9687 49.4379 13.6546 49.2301 14.032L49.1671 13.3484H49.1648Z" fill="#6D9833"/>
<path fill-rule="evenodd" clip-rule="evenodd" d="M36.9521 30.6323L36.8961 30.4597L36.1489 30.5126C36.714 30.3377 37.0128 30.3837 37.1575 29.8359C35.8665 30.1444 36.0392 30.0454 34.7551 29.8705C34.7878 30.5333 34.9653 29.8935 35.0446 30.7151C35.5186 30.8325 35.4415 31.0051 35.8548 30.8417C36.2914 30.6691 36.4618 30.6668 36.9521 30.6323Z" fill="#979191"/>
<path fill-rule="evenodd" clip-rule="evenodd" d="M30.1487 11.5245C29.7331 11.4761 29.2755 11.3611 28.8973 11.582C28.5751 11.7708 28.4024 12.1413 28.6405 12.5073C28.6895 12.5809 29.8009 13.3658 30.1487 11.5245Z" fill="#863329"/>
<path fill-rule="evenodd" clip-rule="evenodd" d="M45.5181 30.6656L45.4178 31.1167C45.8357 31.1305 46.0481 31.1351 46.1298 30.7484C46.354 29.6989 46.3703 30.5712 46.4497 29.8301C45.1493 29.9981 45.1749 30.1868 43.8372 29.8347C43.9212 30.7047 44.6987 30.0994 45.5181 30.6679V30.6656Z" fill="#979191"/>
<path fill-rule="evenodd" clip-rule="evenodd" d="M49.9191 34.2768C50.5775 34.2883 51.6795 33.8073 51.7098 33.2365C51.7425 32.6289 50.5728 32.1663 49.9681 32.0742C50.2856 32.4195 51.4903 33.08 50.5541 33.8948C50.1946 34.2078 50.26 34.0835 49.9167 34.2768H49.9191Z" fill="#4B4745"/>
<path fill-rule="evenodd" clip-rule="evenodd" d="M45.3616 17.8186C45.7001 18.4838 45.3336 18.4424 45.6301 18.9326C45.9523 18.882 46.1811 18.714 46.5056 18.5989C46.5173 17.4573 46.7087 17.7588 45.9523 17.2363L45.6698 17.5424C45.5343 17.6828 45.4666 17.7243 45.3616 17.8186Z" fill="#979191"/>
<path fill-rule="evenodd" clip-rule="evenodd" d="M33.387 17.923C33.6298 18.0358 34.2438 18.6987 35.0002 17.953C35.0119 17.9415 35.0283 17.9253 35.0399 17.9138L35.2291 17.6469C35.0213 17.5594 35.3108 17.8287 35.138 17.541C34.9209 17.1773 35.3201 17.8908 35.0913 17.442C35.0026 17.2694 35.1053 17.3177 34.9395 17.198C34.7061 17.03 34.524 17.1566 34.2625 17.2372L34.1364 17.2717C33.7909 17.3753 33.7582 17.3569 33.6578 17.9184L33.3893 17.923H33.387Z" fill="#B1312F"/>
<path fill-rule="evenodd" clip-rule="evenodd" d="M44.2317 13.9365C44.311 14.0309 44.1219 13.9664 44.4581 14.0861C44.6472 14.1528 44.7079 14.1574 44.9087 14.139C45.35 14.0976 45.308 13.9434 45.3033 13.6051C45.2846 13.0757 44.9858 12.7143 44.4254 12.666L44.3741 12.8018C44.3671 12.8225 44.3601 12.8478 44.3531 12.8686L44.2223 13.1424C44.0682 13.3611 43.8838 13.5636 44.4301 13.9273L44.2363 13.9388L44.2317 13.9365Z" fill="#6D9833"/>
<path fill-rule="evenodd" clip-rule="evenodd" d="M35.8103 14.749C36.5107 14.7744 36.8399 14.3486 36.8446 13.8008C36.8399 13.7985 36.6975 13.734 36.6951 13.7317C36.5434 13.619 36.6741 13.7709 36.5784 13.6097C36.492 13.4601 36.5621 13.5568 36.52 13.4279C36.4804 13.2944 36.513 13.322 36.4663 13.2461C35.6095 13.3497 35.4227 14.1207 35.8103 14.7513V14.749Z" fill="#4F132A"/>
<path fill-rule="evenodd" clip-rule="evenodd" d="M33.478 34.2712L35.682 34.2804C35.4182 33.9812 35.1007 33.6774 34.9069 33.3482C34.7831 33.1411 34.9022 33.2009 34.6804 33.0605L34.0874 33.7487C34.0757 33.7602 34.057 33.774 34.0454 33.7856L33.9123 33.8937C33.8983 33.9052 33.8819 33.919 33.8679 33.9305L33.478 34.2712Z" fill="#4B4745"/>
<path fill-rule="evenodd" clip-rule="evenodd" d="M30.8397 14.9033C31.1596 14.9378 31.1222 14.8964 31.1689 15.2117C30.8794 15.191 30.8584 15.1864 30.8397 14.9033ZM30.249 15.3291C30.5852 15.6053 30.765 15.9321 31.4724 15.8285C31.7502 15.3912 31.5985 15.0045 31.2086 14.703C31.0452 14.5764 30.7767 14.4637 30.5292 14.5327C30.1907 14.6271 30.4428 14.657 30.5128 14.9999C30.249 15.2531 30.3774 14.9815 30.249 15.3291Z" fill="#4F132A"/>
<path fill-rule="evenodd" clip-rule="evenodd" d="M37.2672 10.6279C36.6251 10.6071 36.5901 10.5013 36.478 11.1733C36.8889 11.1848 37.3255 11.1871 37.7574 11.1987C38.4345 11.2171 38.5209 11.3506 38.5793 10.7222C38.1427 10.6601 37.7504 10.6417 37.2695 10.6256L37.2672 10.6279Z" fill="#173B89"/>
<path fill-rule="evenodd" clip-rule="evenodd" d="M32.6258 30.5187C33.4336 30.4772 33.6974 30.9422 34.3535 30.8064L34.4796 30.0998C34.3395 29.9272 34.5169 30.0491 34.2157 30.0146C33.548 30.1849 32.9667 30.0676 32.4647 29.7891C32.4554 30.3299 33.0344 30.2126 33.4803 30.3783L32.6865 30.3875L32.6235 30.5187H32.6258Z" fill="#979191"/>
<path fill-rule="evenodd" clip-rule="evenodd" d="M47.9859 16.1405C47.2038 15.7998 46.2769 16.0093 46.6551 16.6491C46.7975 16.8908 48.0443 17.2798 47.9859 16.1405Z" fill="#B1312F"/>
<path fill-rule="evenodd" clip-rule="evenodd" d="M34.9418 20.0219L36.8096 20.5881L36.8562 20.0426C36.4056 19.87 35.6048 19.6237 35.1005 19.5547L34.9395 20.0219H34.9418Z" fill="#979191"/>
<path fill-rule="evenodd" clip-rule="evenodd" d="M31.2435 24.9467C31.7548 24.9928 31.9976 24.7235 32.0583 24.2747C31.7362 23.9708 31.6544 24.2102 31.3136 23.7361C31.0988 23.4369 31.3766 23.6486 31.0824 23.4668C30.7649 23.9018 30.954 24.59 31.2435 24.9467Z" fill="#BD6B43"/>
<path fill-rule="evenodd" clip-rule="evenodd" d="M47.1219 30.8825L47.4674 30.894C47.3367 30.5005 47.29 30.4751 47.7009 30.3232C47.9834 30.2197 48.2823 30.2013 48.5764 30.1391C48.8963 30.0079 48.8519 30.0977 48.9757 29.7363C47.925 30.0033 48.3219 30.1483 46.739 29.9458C46.788 30.8227 46.718 30.8342 47.1242 30.8825H47.1219Z" fill="#979191"/>
<path fill-rule="evenodd" clip-rule="evenodd" d="M47.3579 25.646C47.7268 25.6874 48.9992 25.4619 49.3097 25.2961L49.1953 24.5527C48.9642 24.5711 47.6077 25.4504 47.3579 25.646Z" fill="#979191"/>
<path fill-rule="evenodd" clip-rule="evenodd" d="M45.107 31.3307L45.2845 30.8128C45.2961 30.8105 45.2728 30.7691 45.2634 30.7852C45.2564 30.799 45.2261 30.7553 45.2144 30.7484C44.8362 30.5021 43.4914 30.341 43.8603 31.0315C44.0167 31.3215 43.8253 31.1465 44.1638 31.2248C44.3903 31.2754 44.8245 31.3215 45.107 31.333V31.3307Z" fill="#D21D72"/>
<path fill-rule="evenodd" clip-rule="evenodd" d="M52.4895 13.0931C52.5269 13.123 52.765 13.2634 52.6903 13.4889C52.5619 13.3578 53.0638 13.1506 53.2039 13.1C53.2249 13.0931 53.2459 13.0885 53.267 13.0816C53.5261 12.9918 53.386 13.1161 53.5868 12.9274C53.7526 13.0793 53.6452 12.9389 53.7432 13.1805C53.8133 13.3555 53.7246 13.2841 53.839 13.4843C54.2219 12.7501 53.6615 12.3151 52.8374 12.4118L52.4895 13.0977V13.0931Z" fill="#D6C7B1"/>
<path fill-rule="evenodd" clip-rule="evenodd" d="M47.3952 17.7543L46.7228 17.7129C46.7415 18.0857 46.529 19.0156 47.0777 19.0225C47.5726 19.0271 47.4279 18.141 47.3952 17.7543Z" fill="#F1C691"/>
<path fill-rule="evenodd" clip-rule="evenodd" d="M31.4865 23.721C31.6873 23.843 31.8251 23.9443 32.1169 24.0363C32.0258 23.1295 32.5068 22.614 31.8087 22.416C31.5402 22.7313 31.4492 23.3205 31.4865 23.7233V23.721Z" fill="#90746D"/>
<path fill-rule="evenodd" clip-rule="evenodd" d="M32.6796 18.5852C32.6726 18.6013 32.6632 18.6105 32.6632 18.6335C32.6632 18.6565 32.6515 18.6726 32.6539 18.6818C32.6772 18.8384 32.6235 18.6911 32.6959 18.8268L33.1722 19.5472C33.506 19.5472 33.6765 19.4782 33.8913 19.3148L33.8959 18.9212C33.6882 18.8476 33.4523 18.8015 33.2913 18.7302C33.0414 18.622 32.934 18.4954 32.6796 18.5852Z" fill="#979191"/>
<path fill-rule="evenodd" clip-rule="evenodd" d="M40.1856 11.1107C39.9148 11.0233 39.4642 11.0992 39.128 11.1383C38.6868 11.1913 38.5747 11.2925 38.6284 11.7621C38.8712 11.7229 40.0946 11.5043 40.188 11.4698L40.1833 11.1107H40.1856Z" fill="#6D9833"/>
<path fill-rule="evenodd" clip-rule="evenodd" d="M31.1643 23.1415C31.5238 22.8262 31.8157 21.6455 30.9565 21.7053C30.8468 22.2853 30.6273 22.8998 31.1643 23.1415Z" fill="#BD6B43"/>
<path fill-rule="evenodd" clip-rule="evenodd" d="M36.4664 31.5606C37.0454 31.3304 37.1948 31.6642 37.2159 30.9023C36.6462 30.8379 36.4221 30.8494 35.9131 31.045C35.9248 31.2959 35.9551 31.4064 36.1466 31.6204L36.4687 31.5606H36.4664Z" fill="#BD6B43"/>
<path fill-rule="evenodd" clip-rule="evenodd" d="M50.4722 22.9709C50.8294 22.8535 51.1166 22.7477 51.0862 22.3173C51.0745 22.1423 50.8574 21.4979 50.771 21.3828C50.122 21.59 50.6216 22.3449 50.4698 22.9709H50.4722Z" fill="#D6C7B1"/>
<path fill-rule="evenodd" clip-rule="evenodd" d="M51.2545 22.1412C51.7144 22.0445 51.6304 21.5842 51.565 21.0479C51.5067 20.5692 51.46 20.6843 51.4156 20.6152C50.7035 20.7902 51.0561 21.7545 51.2545 22.1412Z" fill="#D6C7B1"/>
<path fill-rule="evenodd" clip-rule="evenodd" d="M47.7593 30.6024L47.9157 31.1548C48.1819 31.1364 48.3663 31.0627 48.6862 31.0144C49.0457 30.9615 49.1414 30.8947 49.0457 30.4781C48.6301 30.3884 48.0721 30.4551 47.7616 30.6024H47.7593Z" fill="#D21D72"/>
<path fill-rule="evenodd" clip-rule="evenodd" d="M36.2329 11.0595L36.3146 10.7971C36.3169 10.4703 36.1839 10.5899 35.7449 10.5715C35.4228 10.5577 35.285 10.5117 34.9558 10.5692L35.1636 11.1216C35.5628 11.1676 35.9317 11.1792 36.2306 11.0595H36.2329Z" fill="#D8AC30"/>
<path fill-rule="evenodd" clip-rule="evenodd" d="M30.6273 22.175L30.723 21.5582C31.1409 21.4592 31.379 21.648 31.4421 21.2037C31.6172 20 29.7377 21.6226 30.6273 22.175Z" fill="#90746D"/>
<path fill-rule="evenodd" clip-rule="evenodd" d="M32.502 31.2024C32.6654 31.2761 33.3424 31.5085 33.4942 31.5293L33.7837 30.97C33.2047 30.8365 33.1954 30.7513 32.509 30.7168L32.502 31.2024Z" fill="#BD6B43"/>
<path fill-rule="evenodd" clip-rule="evenodd" d="M24.5266 22.462C24.7367 22.699 24.7577 22.7934 25.0566 22.8647L25.1336 22.775C25.241 22.6139 25.5796 22.1167 25.5632 21.9717C25.5609 21.9717 25.5445 21.7324 25.0122 22.1075C24.8581 22.2157 24.6527 22.3262 24.5266 22.4643V22.462Z" fill="#979191"/>
<path fill-rule="evenodd" clip-rule="evenodd" d="M34.2251 18.9976C34.0734 19.5638 34.1224 19.84 34.7551 19.7594L34.8859 18.9654C34.5987 18.9102 34.4796 18.9056 34.2251 18.9976Z" fill="#90746D"/>
<path fill-rule="evenodd" clip-rule="evenodd" d="M43.6806 31.5955C43.7529 31.6461 43.7039 31.6461 43.8627 31.6876C43.914 31.7014 44.0098 31.706 44.0728 31.7175C44.6681 31.8188 44.7919 32.0397 44.9553 32.0926L45.1001 32.0949C45.1001 32.0949 45.3569 31.9914 45.037 31.706C45.0043 31.6761 44.7499 31.5449 44.6565 31.5126C44.3483 31.4022 43.942 31.3768 43.6782 31.5955H43.6806Z" fill="#979191"/>
<path fill-rule="evenodd" clip-rule="evenodd" d="M43.363 31.9102C43.4774 31.9815 43.2533 31.9148 43.5428 31.993C43.5988 32.0091 43.6852 32.0183 43.7506 32.0298C44.3296 32.1495 44.416 32.3221 44.5771 32.3889C44.6261 32.4096 44.6284 32.4096 44.6751 32.4188C44.6845 32.4211 44.7148 32.4165 44.7242 32.4165C44.7335 32.4165 44.7592 32.4119 44.7755 32.4096C44.7755 32.4096 45.0183 32.2853 44.7078 32.0321C44.6448 31.9792 44.402 31.8918 44.3133 31.8618C44.0845 31.779 43.4191 31.6363 43.3654 31.9102H43.363Z" fill="#979191"/>
<path fill-rule="evenodd" clip-rule="evenodd" d="M51.238 20.3364L51.6536 20.5021C51.7167 20.753 51.67 20.7829 51.817 20.967C51.9478 20.6609 51.8357 20.0165 51.761 19.7012C51.3174 19.715 51.3151 19.8669 51.238 20.3364Z" fill="#F1C691"/>
<path fill-rule="evenodd" clip-rule="evenodd" d="M47.8832 31.9662C48.1096 31.8558 48.2217 31.7522 48.5462 31.621C48.8357 31.5036 49.0692 31.5151 49.2957 31.4116C48.8637 31.0709 47.666 31.3448 47.8855 31.9662H47.8832Z" fill="#979191"/>
<path fill-rule="evenodd" clip-rule="evenodd" d="M32.5954 32.2171C32.8382 32.2977 32.9479 32.4266 33.109 32.4082L33.1511 32.1297C32.7822 31.8903 32.404 31.5934 31.8623 31.7913C31.9627 31.8995 31.8693 31.8512 32.0234 31.9363C32.0981 31.9801 32.1658 31.9893 32.2569 32.0215C32.3339 32.0491 32.3363 32.0422 32.4226 32.0882L32.5931 32.2148L32.5954 32.2171Z" fill="#979191"/>
<path fill-rule="evenodd" clip-rule="evenodd" d="M30.4896 21.0974C30.7534 20.7844 30.2117 20.0133 29.9923 20.1169C29.7051 20.2504 30.0623 20.7199 30.2351 20.9409C30.4289 21.1918 30.3098 21.0744 30.4919 21.0951L30.4896 21.0974Z" fill="#90746D"/>
<path fill-rule="evenodd" clip-rule="evenodd" d="M48.2054 32.3041C48.4318 32.1844 48.5579 32.0394 48.8661 31.9243C49.0972 31.8369 49.4241 31.8069 49.6085 31.6965C49.0155 31.4525 48.5182 31.7287 48.126 31.9657L48.2054 32.3041Z" fill="#979191"/>
<path fill-rule="evenodd" clip-rule="evenodd" d="M36.2468 31.8558L36.1464 31.9295L36.0974 32.2471L36.2865 32.3046C36.5457 32.0353 36.7815 31.9893 37.0967 31.911L37.4422 31.7476C36.9006 31.6279 36.7441 31.6464 36.2445 31.8581L36.2468 31.8558Z" fill="#979191"/>
<path fill-rule="evenodd" clip-rule="evenodd" d="M36.3963 32.6056C36.7021 32.5457 36.6508 32.4629 36.966 32.3294C37.3115 32.1821 37.4656 32.2304 37.6804 32.067C37.3652 31.8668 36.3262 31.9381 36.3986 32.6056H36.3963Z" fill="#979191"/>
<path fill-rule="evenodd" clip-rule="evenodd" d="M33.151 32.1285C33.172 32.1354 33.2047 32.1262 33.214 32.1493C33.2677 32.2781 33.2794 32.17 33.3308 32.17C33.3308 32.17 33.4732 32.14 33.4755 32.1377C33.4148 31.6498 32.677 31.3529 32.2078 31.5923C32.4552 31.7948 32.6817 31.7096 32.9922 31.9329C33.1813 32.071 33.0809 31.9812 33.1533 32.1285H33.151Z" fill="#979191"/>
<path fill-rule="evenodd" clip-rule="evenodd" d="M52.548 12.6719C52.1277 12.764 52.1954 12.7778 51.7705 12.6788C51.8966 13.0772 52.0227 13.0587 52.4452 13.1163L52.548 12.6719Z" fill="#D6C7B1"/>
<path fill-rule="evenodd" clip-rule="evenodd" d="M49.3657 18.6423L49.891 18.3892L49.8864 17.8828C49.6529 18.0508 49.4825 18.3454 49.3657 18.6423Z" fill="#979191"/>
<path fill-rule="evenodd" clip-rule="evenodd" d="M36.9846 20.6855L37.4398 20.7983C37.3605 20.5221 37.2087 20.3241 37.0313 20.1699C36.9449 20.4599 36.9449 20.3702 36.9846 20.6855Z" fill="#979191"/>
<path fill-rule="evenodd" clip-rule="evenodd" d="M46.4333 31.1301C46.5967 30.9989 46.6014 31.0564 46.6154 30.8101C46.6224 30.6605 46.571 30.4626 46.5126 30.3613C46.4006 30.4695 46.3212 30.5754 46.3422 30.8861C46.3655 31.2705 46.2675 30.6789 46.3655 31.0242L46.4333 31.1301Z" fill="#D8D7D8"/>
<path fill-rule="evenodd" clip-rule="evenodd" d="M44.227 20.3017C44.0915 20.0116 44.0215 19.9356 43.6853 19.8711C43.7857 20.2211 43.8814 20.2303 44.227 20.3017Z" fill="#D8D7D8"/>
<path fill-rule="evenodd" clip-rule="evenodd" d="M31.1688 15.2127C31.1221 14.8997 31.1595 14.9411 30.8396 14.9043C30.8583 15.1874 30.8793 15.1897 31.1688 15.2127Z" fill="#D8D7D8"/>
</svg>
