<svg width="35" height="32" viewBox="0 0 35 32" fill="none" xmlns="http://www.w3.org/2000/svg">
<path d="M25.3751 0.742188C22.33 0.742188 19.4076 2.09098 17.5001 4.22241C15.5925 2.09098 12.67 0.742188 9.62501 0.742188C4.235 0.742188 0 4.77191 0 9.90065C0 16.195 5.95 21.3237 14.9625 29.1167L17.5001 31.2982L20.0376 29.1001C29.05 21.3237 35 16.195 35 9.90065C35 4.77191 30.7651 0.742188 25.3751 0.742188ZM17.675 26.6357L17.5001 26.8022L17.3251 26.6357C8.99501 19.4588 3.50001 14.713 3.50001 9.90065C3.50001 6.5703 6.12501 4.07254 9.62501 4.07254C12.32 4.07254 14.945 5.72106 15.8726 8.00235H19.145C20.055 5.72106 22.68 4.07254 25.3751 4.07254C28.875 4.07254 31.5 6.5703 31.5 9.90065C31.5 14.713 26.0051 19.4588 17.675 26.6357Z" fill="url(#paint0_linear_2_57)"/>
<defs>
<linearGradient id="paint0_linear_2_57" x1="14.6239" y1="-2.92454" x2="64.943" y2="4.70732" gradientUnits="userSpaceOnUse">
<stop stop-color="#002F52"/>
<stop offset="1" stop-color="#326589"/>
</linearGradient>
</defs>
</svg>
