<svg width="42" height="32" viewBox="0 0 42 32" fill="none" xmlns="http://www.w3.org/2000/svg">
<path fill-rule="evenodd" clip-rule="evenodd" d="M27.3216 24.5022V16.844H33.403V24.5022C33.0049 24.3153 30.6342 23.172 30.3925 23.153C30.1437 23.134 29.1414 23.6566 28.8642 23.7801L27.3252 24.5022H27.3216ZM41.5103 21.4554V21.7246C41.4427 22.5766 40.7425 23.3842 39.6443 23.419C39.1609 23.4349 39.1502 23.343 38.8979 23.6217C37.9773 24.6289 37.8351 25.9401 38.5353 27.0834C39.0507 27.9195 39.2106 27.7453 39.6443 27.758C40.5861 27.7865 41.5103 28.572 41.5103 29.4176C41.5103 30.5768 40.6963 31.3686 39.6443 31.3686H5.9996C5.22832 31.3686 4.0874 31.0265 3.57204 30.7858C2.94649 30.4944 2.34226 30.0922 1.84466 29.652C0.540248 28.496 0 27.1658 0 25.3003C0 23.5267 1.42881 21.4902 2.9998 20.7491C2.87895 20.5907 1.04851 19.2479 2.73678 17.9145C3.64668 17.1956 3.97367 17.7751 4.48904 17.3096C5.29585 16.578 5.42381 15.1527 4.80537 14.2343C4.35753 13.566 4.17982 13.6927 3.82083 13.6673C1.84111 13.528 1.41104 11.0956 3.21661 10.3957C3.91325 10.1265 5.48778 10.2753 6.40834 10.2753L5.57664 9.57221C4.27578 8.26735 4.13716 7.10183 4.13716 5.50875C4.13716 4.43509 5.07549 2.90535 5.93918 2.20225C6.72111 1.56248 8.27433 0.742188 9.73158 0.742188H32.916C34.3235 0.742188 35.3045 2.48096 34.1956 3.54512C33.3603 4.34641 32.7383 3.96002 32.3189 4.25773C31.9528 4.51744 31.537 5.3599 31.537 5.94266C31.537 6.62676 31.6649 7.00365 32.0381 7.5199C32.5642 8.24834 32.5855 7.78594 33.3959 8.04248C34.1956 8.29585 35.045 9.33468 34.5368 10.2753C36.5023 10.3133 38.5069 11.7227 39.4026 13.3095C40.0601 14.475 40.1703 16.0079 39.6976 17.2589C39.4346 17.9557 39.0223 18.5479 38.5211 19.1022C38.1657 19.4981 37.8529 19.6089 37.6965 19.8116C38.5851 19.8116 39.7118 19.7103 40.348 19.9763C41.098 20.293 41.4605 20.8663 41.5067 21.4585L41.5103 21.4554ZM2.83986 25.37C2.83986 26.5102 3.0389 27.1056 3.87415 27.8435C4.46416 28.3661 5.22477 28.8348 6.16665 28.8348H28.786C29.2729 28.8348 29.5359 27.9987 28.9104 27.7865C28.5869 27.6788 9.94483 27.7517 8.67951 27.7517C7.06588 27.7517 5.38471 27.9861 4.49614 26.7825C3.81728 25.8609 3.97722 24.7872 4.84446 24.0461C5.29585 23.6597 5.8752 23.4158 6.73178 23.4158H26.0279C26.0279 25.1293 25.7009 26.6653 27.6664 25.598L30.4067 24.3565C30.7053 24.537 33.7122 25.9464 33.9752 25.9464C34.3982 25.9464 34.6256 25.6994 34.6256 25.5125V23.419H37.4619L37.0248 24.4008C36.7404 25.1546 36.7404 26.0161 37.0248 26.7699L37.4619 27.7517H31.8675C31.1958 27.7517 30.4885 27.6092 30.4885 28.3313C30.4885 29.0312 31.4801 28.838 32.6779 28.838H38.2723C38.8481 28.838 40.2983 28.6638 40.2983 29.5601C40.2983 29.937 39.9144 30.2822 39.3244 30.2822H6.81353C1.66695 30.2822 -0.0533138 25.522 2.22497 22.8711C2.63016 22.3992 3.08866 22.016 3.65023 21.6866C3.92035 21.5282 4.24024 21.3699 4.55301 21.2622C5.26031 21.0246 5.93562 20.8916 6.89172 20.8916H26.0243V22.3358H6.24484C4.56723 22.3358 2.83986 23.8751 2.83986 25.37ZM39.3208 22.3358H34.6185V20.8916H39.3208C40.6004 20.8916 40.6004 22.3358 39.3208 22.3358ZM3.32679 19.2289C3.32679 18.7126 3.79595 18.5796 4.37885 18.5796H26.0243V19.8085H4.21536C3.76397 19.8085 3.32324 19.5963 3.32324 19.232L3.32679 19.2289ZM5.9214 13.6673C7.35377 13.6673 33.4492 13.5882 34.1956 13.6832C34.3911 13.7085 34.7678 13.8067 34.9455 13.8827C36.0616 14.3483 36.5734 15.5898 35.7097 16.7363C35.4325 17.1005 35.0415 17.2272 34.6185 17.4268C34.6185 16.6951 34.8496 15.764 34.0499 15.764H21.9689C21.1337 15.764 21.1621 16.8472 21.9689 16.8472H26.0208V17.4964H5.9143C5.99604 17.1797 6.1702 17.0372 6.28749 16.673C6.63937 15.593 6.49364 14.8709 6.02092 13.9334C5.96761 13.8289 5.93918 13.7212 5.9143 13.6673H5.9214ZM3.32679 12.0046C3.32679 11.6467 3.65734 11.3553 4.05542 11.3553H33.7264C35.3329 11.3553 36.3921 11.8462 37.2416 12.5557C37.2558 12.5652 37.2736 12.581 37.2842 12.5905C37.2949 12.6 37.3127 12.6158 37.3233 12.6254C39.1253 14.2374 39.2071 16.5336 37.5473 18.3737C37.0497 18.928 35.6813 19.7134 34.615 19.7356C34.615 18.0634 34.4337 18.7696 35.564 18.2692C36.513 17.848 37.3731 16.8852 37.3731 15.8337V15.3269C37.3731 14.2406 36.321 13.1891 35.4538 12.8471C34.3093 12.4005 32.7312 12.5082 31.1318 12.5082H5.18923C4.44639 12.5082 3.32324 12.6919 3.32324 12.0014L3.32679 12.0046ZM30.8084 4.13104C30.6875 4.59028 29.8771 5.56576 30.4316 7.06699C30.4885 7.22219 30.5276 7.33937 30.5987 7.49456C30.6982 7.70993 30.7479 7.7321 30.8084 7.95696C24.592 7.95696 18.3791 7.95696 12.1627 7.95696C10.7765 7.95696 9.22332 8.19767 8.38451 7.20635C7.46396 6.12002 7.90468 4.10254 10.5455 4.13104C11.0644 4.13738 11.5158 4.0582 11.5158 3.6243C11.5158 2.59497 9.10958 2.94019 8.05041 3.6433C7.11564 4.26406 6.42966 5.35356 6.77798 6.75978C6.90238 7.26653 7.30046 7.85562 7.64167 8.15966C8.0433 8.51438 8.62265 8.8311 9.24109 8.97362C10.0266 9.15415 28.1533 9.0433 31.6223 9.0433C32.6388 9.0433 33.4065 8.93878 33.4065 9.76541C33.4065 10.1011 32.916 10.2722 32.5144 10.2722H10.5455C9.13801 10.2722 7.84071 9.96177 6.87395 9.13515C3.74619 6.4589 5.72947 1.81902 10.382 1.81902H32.6779C33.5878 1.81902 33.666 2.90219 32.8414 2.9782L18.731 2.97503C17.0782 2.97503 15.2549 2.90852 13.6199 2.97186C12.4222 3.01937 12.5857 3.80483 12.9873 4.04553C13.3427 4.25773 14.9101 4.13104 15.4859 4.13104H30.8084Z" fill="black"/>
</svg>
